<svg width="112" height="158" viewBox="0 0 112 158" fill="none" xmlns="http://www.w3.org/2000/svg">
<mask id="mask0_152_98" style="mask-type:luminance" maskUnits="userSpaceOnUse" x="96" y="64" width="16" height="15">
<path d="M96.5625 64.4463H111.563V78.4463H96.5625V64.4463Z" fill="white"/>
</mask>
<g mask="url(#mask0_152_98)">
<path d="M104.094 75.6807L108.729 78.4203L107.5 73.2588L111.599 69.7849L106.203 69.3421L104.094 64.4724L101.984 69.3421L96.5938 69.7849L100.688 73.2588L99.4583 78.4203L104.094 75.6807Z" fill="#52B128"/>
</g>
<mask id="mask1_152_98" style="mask-type:luminance" maskUnits="userSpaceOnUse" x="0" y="64" width="15" height="15">
<path d="M0 64.4463H15V78.4463H0V64.4463Z" fill="white"/>
</mask>
<g mask="url(#mask1_152_98)">
<path d="M7.53125 75.6807L12.1667 78.4203L10.9375 73.2588L15.0313 69.7849L9.64063 69.3421L7.53125 64.4724L5.42188 69.3421L0.03125 69.7849L4.125 73.2588L2.89583 78.4203L7.53125 75.6807Z" fill="#D1C511"/>
</g>
<path d="M36.0444 16.5397C34.8778 17.1386 33.7528 17.4355 32.6694 17.4355C31.5965 17.4251 30.6173 17.123 29.7319 16.5397C28.8309 15.9563 28.0861 15.097 27.5028 13.9563C27.0757 13.1386 26.8257 12.347 26.7528 11.5813C26.6694 10.8209 26.7319 10.1126 26.9403 9.45634C27.1382 8.8053 27.4507 8.22717 27.8778 7.72717C28.31 7.22717 28.8361 6.81051 29.4611 6.47717C30.1121 6.14384 30.7319 5.96676 31.3153 5.93551C31.8986 5.89384 32.4455 5.9928 32.9611 6.22717L32.7528 5.01884L34.5236 4.10217L36.7319 8.35217L34.3986 9.56051C33.9246 8.76884 33.4611 8.28967 33.0028 8.12301C32.5548 7.95634 32.0965 7.99801 31.6278 8.24801C31.2944 8.41467 31.0236 8.6803 30.8153 9.03967C30.6173 9.38863 30.534 9.8053 30.5653 10.2897C30.5913 10.7793 30.7632 11.3313 31.0861 11.9563C31.5548 12.873 32.1538 13.4563 32.8778 13.7063C33.6121 13.9459 34.409 13.8418 35.2736 13.3938C35.784 13.1178 36.2371 12.7688 36.6278 12.3522C37.0288 11.9251 37.3465 11.4147 37.5861 10.8313L37.7944 10.8522L39.1903 13.5397C38.8986 14.1803 38.4611 14.7584 37.8778 15.2688C37.2944 15.7845 36.6798 16.2063 36.0444 16.5397Z" fill="#001B52"/>
<path d="M43.1082 13.2904L42.6916 10.832L43.8374 10.6445L42.7332 4.20703L41.5874 4.39453L41.1499 1.9362L47.5666 0.832031L48.0041 3.29036L46.4207 3.5612L47.5249 10.0404L49.8582 9.64453L49.6707 6.9362L52.0457 6.51953L52.9207 11.6029L43.1082 13.2904Z" fill="#001B52"/>
<path d="M62.0718 12.5208C60.4572 12.2812 59.2645 11.6927 58.4884 10.75C57.7228 9.80729 57.4728 8.44792 57.7384 6.66667L58.3218 2.64583L57.1968 2.47917L57.5509 0L63.5926 0.895833L63.2384 3.375L62.0509 3.20833L61.4468 7.25C61.2384 8.73958 61.7593 9.57292 63.0093 9.75C63.603 9.83333 64.077 9.70313 64.4259 9.35417C64.7697 9.01042 64.9937 8.47917 65.0926 7.77083L65.6968 3.72917L64.5301 3.5625L64.8843 1.08333L69.5926 1.77083L69.2384 4.25L68.0926 4.08333L67.4676 8.375C66.9937 11.5938 65.1968 12.9792 62.0718 12.5208Z" fill="#001B52"/>
<path d="M70.8057 14.1809L71.9515 11.9517L72.9723 12.4934L75.9515 6.70174L74.9307 6.16007L76.0765 3.93091L81.6182 6.78507C82.9932 7.49341 83.8994 8.27466 84.3473 9.11841C84.8057 9.95174 84.7952 10.8372 84.3265 11.7642C84.0609 12.2538 83.7119 12.6288 83.2848 12.8892C82.8525 13.1392 82.3577 13.2434 81.8057 13.2017C82.1807 13.6757 82.4098 14.1809 82.4932 14.7226C82.5765 15.2642 82.4723 15.8111 82.1807 16.3684C81.7067 17.2955 80.9984 17.8372 80.0557 17.9934C79.1077 18.1444 77.9932 17.8892 76.7015 17.2226L70.8057 14.1809ZM80.139 8.76424L79.264 8.30591L78.2432 10.2851L79.1182 10.7434C79.8942 11.1497 80.4515 11.0247 80.7848 10.3684C81.1286 9.70174 80.915 9.17049 80.139 8.76424ZM76.2015 14.2434L77.2015 14.7642C78.0192 15.1913 78.6182 15.0403 78.9932 14.3059C79.3682 13.5872 79.1442 13.009 78.3265 12.5767L77.3265 12.0559L76.2015 14.2434Z" fill="#001B52"/>
<mask id="mask2_152_98" style="mask-type:luminance" maskUnits="userSpaceOnUse" x="15" y="34" width="68" height="83">
<path d="M15.9949 34.6338H82.224V116.634H15.9949V34.6338Z" fill="white"/>
</mask>
<g mask="url(#mask2_152_98)">
<path d="M81.3594 65.0713C81.3594 64.8942 81.3334 64.7119 81.2761 64.5296C81.2605 64.4254 81.2344 64.3317 81.2032 64.2379C79.948 51.5921 71.5469 40.8056 59.4948 36.4619C47.2188 32.0348 33.0313 35.889 24.375 45.4879C15.5469 55.2744 13.7448 69.5817 19.3698 81.3838C24.9844 93.1702 37.8177 100.358 50.7917 99.5765C51.4115 99.5348 52.0261 99.4723 52.6407 99.3942C53.2292 104.53 50.7032 109.264 47.224 113.092C45.5834 114.899 47.6303 117.441 49.7761 116.384C60.7448 111.009 70.4167 102.915 76.1094 92.0088C79.6355 85.2483 81.5365 77.6338 81.6303 70.0192C81.6511 68.3733 81.5886 66.7067 81.3594 65.0713Z" fill="#FFDF00"/>
</g>
<mask id="mask3_152_98" style="mask-type:luminance" maskUnits="userSpaceOnUse" x="26" y="34" width="67" height="83">
<path d="M26.2241 34.6338H92.8908V116.634H26.2241V34.6338Z" fill="white"/>
</mask>
<g mask="url(#mask3_152_98)">
<path d="M89.3909 63.3056C89.3649 63.3213 89.344 63.3421 89.3232 63.3577C90.3753 63.9619 91.4326 64.5661 92.4899 65.1702C91.568 52.1233 83.042 40.915 70.6982 36.4619C58.4222 32.0348 44.2347 35.889 35.5784 45.4879C26.7503 55.2744 24.9482 69.5817 30.5732 81.3838C36.1878 93.1702 49.0211 100.358 61.9951 99.5765C63.3701 99.4931 64.7451 99.29 66.0992 99.0504C65.2399 98.5608 64.3753 98.0713 63.5107 97.5817C65.0055 103.415 62.3076 108.816 58.4274 113.092C56.7867 114.899 58.8284 117.441 60.9795 116.384C71.943 111.009 81.6201 102.915 87.3076 92.0088C90.8336 85.2483 92.7399 77.6338 92.8336 70.0192C92.8545 68.2015 92.7815 66.3577 92.4847 64.5608C92.0472 61.8942 87.9899 63.0296 88.4222 65.6754C88.4586 65.8838 88.5055 66.2588 88.3805 65.3525C88.4117 65.5817 88.4378 65.8108 88.4586 66.0452C88.542 66.8629 88.5836 67.6858 88.6097 68.5088C88.6409 69.7588 88.6149 71.014 88.5367 72.264C88.4326 74.0296 88.2867 75.2171 88.0367 76.6963C86.5211 85.7275 82.2763 94.0192 75.9482 100.655C71.0836 105.754 65.1617 109.67 58.8545 112.764C59.7034 113.863 60.5524 114.962 61.4065 116.061C66.3232 110.644 69.4586 103.811 67.5732 96.4671C67.2711 95.2848 66.094 94.8056 64.9795 95.0036C52.0576 97.29 39.3336 90.389 33.8961 78.5973C28.6149 67.165 32.2607 53.4411 41.6982 45.3994C49.7086 38.5765 61.5367 36.9619 71.167 41.1233C80.844 45.3056 87.5367 54.6963 88.2763 65.1702C88.3753 66.5765 90.0576 68.0192 91.4482 66.9775C91.469 66.9619 91.4951 66.9463 91.5159 66.9254C92.4326 66.2431 92.9065 65.1286 92.2763 64.0608C91.7451 63.1598 90.3128 62.6181 89.3909 63.3056Z" fill="#019B38"/>
</g>
<mask id="mask4_152_98" style="mask-type:luminance" maskUnits="userSpaceOnUse" x="50" y="65" width="6" height="26">
<path d="M50.2241 65.5244H55.8491V90.2744H50.2241V65.5244Z" fill="white"/>
</mask>
<g mask="url(#mask4_152_98)">
<path d="M53.0054 65.7484C52.8179 65.7484 52.6408 65.7119 52.4741 65.6494L50.2397 68.6286V90.2744C52.146 90.1806 53.995 89.8838 55.7658 89.3994V67.7015L53.7189 65.5609C53.5054 65.6806 53.2658 65.7484 53.0054 65.7484Z" fill="#001B52"/>
</g>
<path d="M50.2397 52.1129V66.6546L51.6408 64.7848C51.5887 64.6337 51.5575 64.4723 51.5575 64.3004C51.5575 63.5035 52.2033 62.8577 53.0054 62.8577C53.8022 62.8577 54.4481 63.5035 54.4481 64.3004C54.4481 64.3994 54.4377 64.4931 54.422 64.5817L55.7658 65.9879V52.1129H50.2397Z" fill="#001B52"/>
<path d="M42.0991 73.0608L43.5627 73.6493C43.8231 73.2639 44.2658 73.0139 44.7658 73.0139C44.9793 73.0139 45.1877 73.0608 45.37 73.1441L47.6252 70.1441V57.8889H42.0991V73.0608Z" fill="#001B52"/>
<mask id="mask5_152_98" style="mask-type:luminance" maskUnits="userSpaceOnUse" x="42" y="72" width="6" height="19">
<path d="M42.0105 72.0348H47.7084V90.2744H42.0105V72.0348Z" fill="white"/>
</mask>
<g mask="url(#mask5_152_98)">
<path d="M46.2085 74.4566C46.2085 75.2535 45.5627 75.9046 44.7658 75.9046C44.1043 75.9046 43.5418 75.4566 43.3752 74.8525L42.0991 74.3369V89.3994C43.8752 89.8837 45.7241 90.1806 47.6252 90.2744V72.1181L46.1564 74.0712C46.1877 74.1962 46.2085 74.3264 46.2085 74.4566Z" fill="#001B52"/>
</g>
<path d="M61.146 70.5035C61.4793 70.5035 61.7866 70.6181 62.0314 70.8108L63.9064 69.0347V60.1077H58.3804V68.7222L60.3283 70.7587C60.5627 70.5972 60.8439 70.5035 61.146 70.5035Z" fill="#001B52"/>
<path d="M33.9585 72.9567L34.9012 71.9671C34.8647 71.8473 34.8491 71.7223 34.8491 71.5973C34.8491 70.7952 35.495 70.1494 36.297 70.1494C36.9897 70.1494 37.5679 70.639 37.7085 71.29L39.4845 72.0036V64.6963H33.9585V72.9567Z" fill="#001B52"/>
<mask id="mask6_152_98" style="mask-type:luminance" maskUnits="userSpaceOnUse" x="22" y="38" width="53" height="51">
<path d="M22.9324 38.3108H74.9324V88.5816H22.9324V38.3108Z" fill="white"/>
</mask>
<g mask="url(#mask6_152_98)">
<path d="M74.9324 64.3108C74.9324 49.9514 63.2917 38.3108 48.9324 38.3108C34.573 38.3108 22.9324 49.9514 22.9324 64.3108C22.9324 73.092 27.2917 80.8577 33.9584 85.5608V85.566C33.974 85.5764 33.9897 85.5868 34.0053 85.5973C34.1095 85.6702 34.2136 85.7431 34.323 85.816C34.3647 85.842 34.4063 85.8733 34.448 85.8993C34.5313 85.9566 34.6095 86.0087 34.6928 86.0608C34.7397 86.092 34.7865 86.1233 34.8334 86.1545C34.9115 86.2066 34.9949 86.2587 35.0782 86.3108C35.1199 86.3368 35.1667 86.3629 35.2084 86.3941C35.3126 86.4566 35.4115 86.5191 35.5157 86.5816C35.5365 86.592 35.5626 86.6077 35.5834 86.6233C35.7136 86.6962 35.8386 86.7743 35.9636 86.8473C36.0001 86.8681 36.0417 86.8889 36.0782 86.9098C36.172 86.9618 36.2605 87.0139 36.3542 87.066C36.4011 87.092 36.448 87.1181 36.4949 87.1441C36.5782 87.191 36.6667 87.2379 36.7501 87.2795C36.797 87.3056 36.8438 87.3316 36.8907 87.3577C36.9897 87.4045 37.0834 87.4566 37.1824 87.5035C37.2188 87.5243 37.2553 87.54 37.2917 87.5608C37.422 87.6285 37.5522 87.691 37.6876 87.7535C37.7136 87.7691 37.7449 87.7795 37.7709 87.7952C37.8803 87.8473 37.9845 87.8941 38.0938 87.9462C38.1407 87.967 38.1824 87.9879 38.2292 88.0087C38.323 88.0504 38.4115 88.092 38.5053 88.1285C38.5522 88.1493 38.6042 88.1754 38.6511 88.1962C38.7449 88.2327 38.8438 88.2743 38.9376 88.316C38.9792 88.3316 39.0261 88.3525 39.0678 88.3681C39.2084 88.4254 39.3438 88.4827 39.4845 88.5348V73.2848L37.448 72.4618C37.1876 72.816 36.7657 73.04 36.297 73.04C36.0678 73.04 35.849 72.9879 35.6563 72.8889L33.9584 74.6754V78.8108C30.323 75.0556 28.0886 69.9462 28.0886 64.3108C28.0886 52.7952 37.422 43.4618 48.9324 43.4618C60.448 43.4618 69.7813 52.7952 69.7813 64.3108C69.7813 69.9462 67.5417 75.0556 63.9063 78.8108V70.665L62.5886 71.915C62.5886 71.9254 62.5886 71.941 62.5886 71.9514C62.5886 72.7483 61.9428 73.3941 61.1459 73.3941C60.349 73.3941 59.698 72.7483 59.698 71.9514C59.698 71.9045 59.7032 71.8629 59.7084 71.8212L58.3803 70.4358V88.5348C58.5261 88.4775 58.6667 88.4202 58.8126 88.3629C58.8386 88.3525 58.8647 88.342 58.8959 88.3264C59.0053 88.2848 59.1199 88.2327 59.2292 88.1858C59.2657 88.1702 59.3022 88.1545 59.3386 88.1389C59.448 88.092 59.5522 88.0452 59.6615 87.9983C59.6928 87.9827 59.7292 87.967 59.7605 87.9514C59.8907 87.8941 60.0209 87.8316 60.1511 87.7691C60.1563 87.7639 60.1615 87.7639 60.1667 87.7587C60.3074 87.691 60.448 87.6233 60.5886 87.5556C60.6042 87.5452 60.6251 87.5348 60.6407 87.5243C60.7605 87.467 60.8751 87.4098 60.9845 87.3473C61.0209 87.3316 61.0574 87.3108 61.0938 87.2952C61.1928 87.2379 61.2917 87.1858 61.3907 87.1337C61.4272 87.1129 61.4636 87.092 61.5001 87.0712C61.6042 87.0139 61.7136 86.9514 61.823 86.8889C61.8438 86.8785 61.8699 86.8629 61.8907 86.8525C62.0261 86.7743 62.1563 86.6962 62.2865 86.6181C62.2917 86.6181 62.297 86.6129 62.297 86.6129C62.422 86.54 62.547 86.4618 62.6667 86.3837C62.7032 86.3629 62.7345 86.342 62.7657 86.3264C62.8595 86.2639 62.9532 86.2066 63.047 86.1441C63.0834 86.1181 63.1199 86.0973 63.1615 86.0712C63.2553 86.0087 63.349 85.9462 63.4428 85.8837C63.474 85.8629 63.5053 85.842 63.5313 85.8212C63.6615 85.7379 63.7865 85.6493 63.9063 85.5608C70.5782 80.8577 74.9324 73.092 74.9324 64.3108Z" fill="#001B52"/>
</g>
<path d="M47.9798 140.007C47.3392 140.007 46.7923 139.856 46.334 139.548C45.8757 139.246 45.5215 138.819 45.2715 138.277C45.0215 137.725 44.8965 137.079 44.8965 136.34C44.8965 135.606 45.0111 134.965 45.2507 134.423C45.5007 133.882 45.8392 133.465 46.2715 133.173C46.7142 132.871 47.2298 132.715 47.8132 132.715C48.5632 132.715 49.2767 132.986 49.959 133.527V131.84H48.8132V130.048L53.1257 129.611V137.902H54.0423V139.882H50.0215V139.152C49.7559 139.402 49.4434 139.611 49.084 139.777C48.7194 139.928 48.3548 140.007 47.9798 140.007ZM49.0007 138.027C49.1673 138.027 49.334 138.007 49.5007 137.965C49.6777 137.913 49.834 137.84 49.959 137.757V134.986C49.834 134.892 49.6777 134.814 49.5007 134.757C49.334 134.704 49.1673 134.673 49.0007 134.673C48.6934 134.673 48.4486 134.819 48.2715 135.111C48.1048 135.402 48.0215 135.814 48.0215 136.34C48.0215 136.871 48.1048 137.288 48.2715 137.59C48.4486 137.882 48.6934 138.027 49.0007 138.027Z" fill="#001B52"/>
<path d="M59.5365 140.007C58.2292 140.007 57.2084 139.684 56.474 139.027C55.7345 138.361 55.3699 137.455 55.3699 136.298C55.3699 135.564 55.5261 134.934 55.849 134.402C56.1667 133.861 56.6199 133.444 57.2032 133.152C57.7865 132.861 58.4584 132.715 59.224 132.715C59.974 132.715 60.6095 132.856 61.1407 133.132C61.6824 133.397 62.0886 133.777 62.3699 134.277C62.6615 134.767 62.8074 135.33 62.8074 135.965C62.8074 136.106 62.797 136.246 62.7865 136.382C62.7709 136.522 62.7553 136.652 62.7449 136.777H58.4949C58.5782 137.225 58.7865 137.543 59.1199 137.736C59.4532 137.934 59.8542 138.027 60.3282 138.027C60.7292 138.027 61.1095 137.96 61.474 137.819C61.849 137.668 62.1615 137.486 62.4115 137.277L62.599 137.361V139.236C62.3751 139.392 62.099 139.522 61.7657 139.632C61.4324 139.746 61.0678 139.835 60.6824 139.902C60.3074 139.97 59.922 140.007 59.5365 140.007ZM59.3907 134.319C59.099 134.319 58.8751 134.439 58.724 134.673C58.5678 134.897 58.4845 135.215 58.474 135.632H60.3074C60.2917 135.215 60.2084 134.897 60.0574 134.673C59.9167 134.439 59.6928 134.319 59.3907 134.319Z" fill="#001B52"/>
<path d="M14.6133 157.162V155.183H15.5716V149.537H14.6133V147.745L18.6758 147.349V148.204C18.9362 147.954 19.2487 147.756 19.6133 147.599C19.9727 147.433 20.3424 147.349 20.7174 147.349C21.3529 147.349 21.9049 147.506 22.3633 147.808C22.8216 148.115 23.1654 148.547 23.4049 149.099C23.6549 149.641 23.7799 150.282 23.7799 151.016C23.7799 151.756 23.6602 152.391 23.4258 152.933C23.1862 153.474 22.8477 153.901 22.4049 154.204C21.9727 154.495 21.4674 154.641 20.8841 154.641C20.1185 154.641 19.4049 154.37 18.7383 153.829V155.183H19.6966V157.162H14.6133ZM19.6966 152.683C19.9987 152.683 20.2383 152.537 20.4049 152.245C20.582 151.954 20.6758 151.547 20.6758 151.016C20.6758 150.49 20.582 150.079 20.4049 149.787C20.2383 149.485 19.9987 149.329 19.6966 149.329C19.5299 149.329 19.3529 149.36 19.1758 149.412C18.9935 149.454 18.8477 149.516 18.7383 149.599V152.37C18.8477 152.454 18.9935 152.532 19.1758 152.599C19.3529 152.657 19.5299 152.683 19.6966 152.683Z" fill="#001B52"/>
<path d="M29.1907 154.662C28.3573 154.662 27.6386 154.516 27.0448 154.224C26.4459 153.922 25.9875 153.495 25.6698 152.954C25.3469 152.412 25.1907 151.766 25.1907 151.016C25.1907 150.266 25.3469 149.62 25.6698 149.079C25.9875 148.526 26.4459 148.099 27.0448 147.808C27.6386 147.516 28.3573 147.37 29.1907 147.37C30.0084 147.37 30.7167 147.516 31.3157 147.808C31.9094 148.099 32.3678 148.526 32.6907 149.079C33.024 149.62 33.1907 150.266 33.1907 151.016C33.1907 151.766 33.024 152.412 32.6907 152.954C32.3678 153.495 31.9094 153.922 31.3157 154.224C30.7167 154.516 30.0084 154.662 29.1907 154.662ZM29.1907 152.745C29.774 152.745 30.0657 152.172 30.0657 151.016C30.0657 149.865 29.774 149.287 29.1907 149.287C28.5917 149.287 28.2948 149.865 28.2948 151.016C28.2948 152.172 28.5917 152.745 29.1907 152.745Z" fill="#001B52"/>
<path d="M34.7061 154.537V152.558H35.6644V149.537H34.7061V147.745L38.7477 147.349V148.703C39.0081 148.235 39.3623 147.886 39.8102 147.662C40.2686 147.443 40.7061 147.328 41.1227 147.328V150.162C40.7321 150.026 40.3727 149.953 40.0394 149.953C39.8154 149.953 39.5863 149.995 39.3519 150.078C39.1123 150.151 38.9352 150.256 38.8102 150.391V152.558H40.3311V154.537H34.7061Z" fill="#001B52"/>
<path d="M46.4791 154.662C45.4374 154.662 44.6301 154.427 44.0624 153.954C43.5051 153.469 43.2291 152.776 43.2291 151.87V149.454H42.1458V147.662L43.2291 147.558V145.974L46.3958 145.287V147.474H47.9791V149.454H46.3958V151.808C46.3958 152.073 46.4583 152.282 46.5833 152.433C46.7083 152.573 46.901 152.641 47.1666 152.641C47.3176 152.641 47.4478 152.631 47.5624 152.599C47.6718 152.573 47.776 152.547 47.8749 152.516L48.0416 152.579V154.474C47.7916 154.532 47.5416 154.568 47.2916 154.599C47.0416 154.641 46.7708 154.662 46.4791 154.662Z" fill="#001B52"/>
<path d="M52.59 154.662C50.965 154.662 50.1525 153.756 50.1525 151.933V149.537H49.2358V147.745L53.3192 147.349V151.933C53.3192 152.198 53.3713 152.391 53.4858 152.516C53.6108 152.631 53.7619 152.683 53.9442 152.683C54.2775 152.683 54.5327 152.516 54.715 152.183V149.537H54.1317V147.745L57.8817 147.349V152.558H58.7983V154.537H54.7775V153.766C54.5119 154.047 54.1994 154.266 53.84 154.433C53.4754 154.584 53.0588 154.662 52.59 154.662Z" fill="#001B52"/>
<path d="M65.9207 152.724C66.7801 152.724 67.4259 152.901 67.8582 153.245C68.3009 153.594 68.5249 154.089 68.5249 154.724C68.5249 155.276 68.327 155.745 67.9416 156.12C67.5666 156.506 67.0353 156.797 66.3582 156.995C65.6759 157.188 64.8843 157.287 63.9832 157.287C63.077 157.287 62.3426 157.204 61.7749 157.037C61.2176 156.881 60.8062 156.672 60.5457 156.412C60.2801 156.146 60.1499 155.855 60.1499 155.537C60.1499 155.297 60.2384 155.084 60.4207 154.891C60.5978 154.693 60.8218 154.558 61.0874 154.474C60.7801 154.224 60.6291 153.891 60.6291 153.474C60.6291 153.115 60.7541 152.808 61.0041 152.558C61.2645 152.308 61.6395 152.131 62.1291 152.016C61.5457 151.839 61.0562 151.568 60.6707 151.204C60.2801 150.844 60.0874 150.381 60.0874 149.808C60.0874 149.073 60.4259 148.485 61.1082 148.037C61.7853 147.594 62.7801 147.37 64.0874 147.37C64.7801 147.37 65.3999 147.454 65.9416 147.62L68.6707 147.349V149.391H67.8374C67.8791 149.532 67.8999 149.672 67.8999 149.808C67.8999 150.558 67.5457 151.157 66.8374 151.599C66.1291 152.047 65.1291 152.266 63.8374 152.266C63.5145 152.266 63.3582 152.344 63.3582 152.495C63.3582 152.651 63.5145 152.724 63.8374 152.724H65.9207ZM64.0874 148.766C63.8218 148.756 63.5926 148.844 63.3999 149.037C63.2176 149.219 63.1291 149.474 63.1291 149.808C63.1291 150.141 63.2176 150.407 63.3999 150.599C63.577 150.782 63.8062 150.87 64.0874 150.87C64.3634 150.86 64.5926 150.761 64.7749 150.579C64.952 150.401 65.0457 150.141 65.0457 149.808C65.0457 149.474 64.952 149.219 64.7749 149.037C64.5926 148.86 64.3634 148.766 64.0874 148.766ZM62.1499 155.183C62.1499 155.443 62.2801 155.646 62.5457 155.787C62.8218 155.938 63.2332 156.016 63.7749 156.016C64.3582 156.016 64.7801 155.943 65.0457 155.808C65.3062 155.683 65.4416 155.516 65.4416 155.308C65.4416 155.084 65.2801 154.974 64.9624 154.974H62.9416C62.6759 154.974 62.4259 154.954 62.1916 154.912C62.1603 154.995 62.1499 155.084 62.1499 155.183Z" fill="#001B52"/>
<path d="M73.0653 154.662C71.4403 154.662 70.6278 153.756 70.6278 151.933V149.537H69.7112V147.745L73.7945 147.349V151.933C73.7945 152.198 73.8466 152.391 73.9612 152.516C74.0862 152.631 74.2372 152.683 74.4195 152.683C74.7528 152.683 75.0081 152.516 75.1903 152.183V149.537H74.607V147.745L78.357 147.349V152.558H79.2737V154.537H75.2528V153.766C74.9872 154.047 74.6747 154.266 74.3153 154.433C73.9508 154.584 73.5341 154.662 73.0653 154.662Z" fill="#001B52"/>
<path d="M84.7712 154.662C83.4639 154.662 82.443 154.339 81.7087 153.683C80.9691 153.016 80.6045 152.11 80.6045 150.953C80.6045 150.219 80.7607 149.589 81.0837 149.058C81.4014 148.516 81.8545 148.099 82.4378 147.808C83.0212 147.516 83.693 147.37 84.4587 147.37C85.2087 147.37 85.8441 147.511 86.3753 147.787C86.917 148.052 87.3232 148.433 87.6045 148.933C87.8962 149.422 88.042 149.985 88.042 150.62C88.042 150.761 88.0316 150.901 88.0212 151.037C88.0055 151.177 87.9899 151.308 87.9795 151.433H83.7295C83.8128 151.881 84.0212 152.198 84.3545 152.391C84.6878 152.589 85.0889 152.683 85.5628 152.683C85.9639 152.683 86.3441 152.615 86.7087 152.474C87.0837 152.323 87.3962 152.141 87.6462 151.933L87.8337 152.016V153.891C87.6097 154.047 87.3337 154.177 87.0003 154.287C86.667 154.401 86.3024 154.49 85.917 154.558C85.542 154.625 85.1566 154.662 84.7712 154.662ZM84.6253 148.974C84.3337 148.974 84.1097 149.094 83.9587 149.328C83.8024 149.552 83.7191 149.87 83.7087 150.287H85.542C85.5264 149.87 85.443 149.552 85.292 149.328C85.1514 149.094 84.9274 148.974 84.6253 148.974ZM82.7712 146.912L81.7712 146.245L83.5628 143.766H85.3545L87.1462 146.245L86.1462 146.912L84.4587 145.308L82.7712 146.912Z" fill="#001B52"/>
<path d="M93.5745 154.662C93.1162 154.662 92.6787 154.61 92.262 154.516C91.8454 154.407 91.4704 154.245 91.137 154.037L90.9495 154.537H89.4912V152.058H91.1787C91.2725 152.407 91.4495 152.677 91.6995 152.87C91.9495 153.068 92.2204 153.162 92.512 153.162C92.8975 153.162 93.0954 153.016 93.0954 152.724C93.0954 152.516 93.0016 152.36 92.8245 152.245C92.6579 152.136 92.4339 152.037 92.1579 151.954C91.8923 151.87 91.6058 151.787 91.3037 151.704C90.9964 151.61 90.7048 151.485 90.4287 151.329C90.1475 151.162 89.9183 150.943 89.7412 150.662C89.5745 150.386 89.4912 150.016 89.4912 149.558C89.4912 149.157 89.5954 148.787 89.8037 148.454C90.0225 148.12 90.3558 147.86 90.8037 147.662C91.2464 147.454 91.8037 147.349 92.4704 147.349C92.8975 147.349 93.2933 147.401 93.6579 147.495C94.0329 147.579 94.3766 147.724 94.6995 147.933L94.8454 147.474H96.3037V149.745H94.6162C94.5016 149.412 94.335 149.172 94.1162 149.016C93.9079 148.865 93.6787 148.787 93.4287 148.787C92.9964 148.787 92.7829 148.922 92.7829 149.183C92.7829 149.365 92.8714 149.511 93.0537 149.62C93.2308 149.719 93.46 149.808 93.7412 149.891C94.0173 149.974 94.3089 150.068 94.6162 150.162C94.9339 150.261 95.2308 150.401 95.512 150.579C95.7881 150.745 96.0173 150.974 96.1995 151.266C96.3766 151.547 96.4704 151.912 96.4704 152.37C96.4704 153.068 96.21 153.62 95.6995 154.037C95.1995 154.454 94.4912 154.662 93.5745 154.662Z" fill="#001B52"/>
</svg>
