<?xml version="1.0" encoding="UTF-8"?>
<!DOCTYPE svg PUBLIC "-//W3C//DTD SVG 1.1//EN" "http://www.w3.org/Graphics/SVG/1.1/DTD/svg11.dtd">
<!-- Creator: CorelDRAW 2019 (64 Bit) -->
<svg xmlns="http://www.w3.org/2000/svg" xml:space="preserve" width="720px" height="720px" version="1.1" style="shape-rendering:geometricPrecision; text-rendering:geometricPrecision; image-rendering:optimizeQuality; fill-rule:evenodd; clip-rule:evenodd"
viewBox="0 0 720 720"
 xmlns:xlink="http://www.w3.org/1999/xlink">
 <defs>
  <style type="text/css">
   <![CDATA[
    .fil2 {fill:#001B52}
    .fil0 {fill:white}
    .fil1 {fill:#001B52;fill-rule:nonzero}
   ]]>
  </style>
 </defs>
 <g id="Camada_x0020_1">
  <metadata id="CorelCorpID_0Corel-Layer"/>
  <g id="_1975322894912">
   <g>
    <path class="fil0" d="M382.45 165.15l9.09 6.62 -7.12 11.2c-6.46,23.42 0,70.24 -18.33,63.98 -8.01,-0.43 -8.12,-12.42 -1.71,-33.95l10.37 -31.05 7.7 -16.8z"/>
    <path id="1" class="fil1" d="M392.03 171.11l0.21 1.1 -1.18 0.23 -9.1 -6.62 0.97 -1.33 9.1 6.62zm-0.97 1.33l0.97 -1.33c0.36,0.26 0.44,0.78 0.18,1.14 -0.27,0.37 -0.79,0.45 -1.15,0.19zm-5.95 10.97l-1.49 -0.66 0.1 -0.22 7.13 -11.2 1.39 0.88 -7.13 11.2zm-1.39 -0.88l1.39 0.88c-0.24,0.38 -0.75,0.5 -1.13,0.25 -0.39,-0.24 -0.5,-0.75 -0.26,-1.13zm-17.58 63.6l0.22 0.04 1.53 0.4 1.36 0.13 1.2 -0.13 1.09 -0.36 0.98 -0.59 0.92 -0.81 0.84 -1.04 0.77 -1.27 0.7 -1.48 0.63 -1.68 0.56 -1.86 0.5 -2.03 0.43 -2.17 0.39 -2.31 0.33 -2.43 0.3 -2.54 0.26 -2.63 0.23 -2.7 0.21 -2.76 0.2 -2.81 0.19 -2.85 0.2 -2.86 0.19 -2.87 0.22 -2.86 0.23 -2.84 0.26 -2.8 0.3 -2.75 0.33 -2.68 0.39 -2.61 0.44 -2.52 0.51 -2.41 0.57 -2.3 1.59 0.44 -0.56 2.22 -0.49 2.36 -0.44 2.47 -0.38 2.57 -0.33 2.65 -0.29 2.73 -0.26 2.78 -0.23 2.82 -0.21 2.85 -0.2 2.86 -0.19 2.86 -0.2 2.85 -0.19 2.82 -0.22 2.78 -0.23 2.72 -0.27 2.65 -0.29 2.56 -0.35 2.47 -0.39 2.36 -0.45 2.24 -0.51 2.1 -0.59 1.95 -0.67 1.8 -0.77 1.62 -0.87 1.43 -1 1.23 -1.13 1.01 -1.28 0.76 -1.42 0.47 -1.55 0.16 -1.66 -0.15 -1.76 -0.46 0.22 0.04 0.09 -1.64zm0.22 0.04l-0.53 1.56c-0.43,-0.15 -0.66,-0.62 -0.52,-1.04 0.15,-0.43 0.62,-0.66 1.05,-0.52zm-1.2 -32.91l0.01 -0.03 -0.58 1.98 -0.54 1.93 -0.51 1.87 -0.46 1.81 -0.42 1.75 -0.39 1.7 -0.34 1.63 -0.31 1.57 -0.26 1.52 -0.22 1.45 -0.19 1.4 -0.14 1.33 -0.1 1.26 -0.06 1.21 -0.02 1.14 0.02 1.07 0.06 1.01 0.1 0.95 0.14 0.87 0.18 0.81 0.22 0.74 0.26 0.67 0.29 0.6 0.32 0.53 0.36 0.46 0.39 0.41 0.42 0.34 0.46 0.29 0.5 0.23 0.54 0.18 0.6 0.12 0.65 0.07 -0.09 1.64 -0.81 -0.08 -0.77 -0.16 -0.73 -0.24 -0.68 -0.32 -0.63 -0.39 -0.58 -0.47 -0.52 -0.54 -0.47 -0.61 -0.41 -0.68 -0.35 -0.73 -0.31 -0.8 -0.25 -0.85 -0.2 -0.91 -0.16 -0.97 -0.11 -1.02 -0.07 -1.08 -0.02 -1.14 0.02 -1.2 0.06 -1.25 0.11 -1.32 0.15 -1.37 0.19 -1.43 0.22 -1.49 0.27 -1.54 0.31 -1.61 0.35 -1.66 0.39 -1.71 0.43 -1.78 0.47 -1.83 0.51 -1.89 0.54 -1.94 0.59 -2 0.01 -0.02 1.56 0.52zm0.01 -0.03l-1.58 -0.47c0.13,-0.43 0.59,-0.68 1.02,-0.55 0.44,0.13 0.69,0.59 0.56,1.02zm8.8 -31.54l0.03 -0.08 1.53 0.6 -10.37 31.05 -1.56 -0.52 10.37 -31.05zm1.56 0.52l-1.56 -0.52c0.14,-0.43 0.61,-0.66 1.04,-0.52 0.43,0.14 0.66,0.61 0.52,1.04zm6.17 -17.4l1.23 -0.32 0.27 1 -7.71 16.8 -1.49 -0.68 7.7 -16.8zm1.5 0.68l-1.5 -0.68c0.19,-0.41 0.68,-0.59 1.09,-0.41 0.41,0.19 0.6,0.68 0.41,1.09z"/>
   </g>
   <g>
    <path class="fil0" d="M381.77 153.88c1.59,-2.65 17.89,1.06 22.97,9.57 12.04,20.19 24.09,40.38 36.13,60.57 32.58,43.77 72.05,144.03 76.35,198 4.63,58.04 -12.86,100.21 -46.82,107.39 -12.2,2.59 -19.71,-7.95 -23.93,-16.28l-34.65 -306.46 0.04 -5.05 -11.2 -22.39c-2.11,-4.22 -25.66,-14.05 -18.89,-25.35z"/>
    <path id="1" class="fil1" d="M404.03 163.87l0 0 -0.48 -0.73 -0.53 -0.71 -0.59 -0.69 -0.65 -0.67 -0.69 -0.63 -0.74 -0.62 -0.77 -0.58 -0.81 -0.56 -0.83 -0.54 -0.86 -0.5 -0.88 -0.47 -0.9 -0.44 -0.9 -0.42 -0.91 -0.38 -0.91 -0.35 -0.9 -0.32 -0.89 -0.29 -0.88 -0.25 -0.85 -0.23 -0.83 -0.18 -0.8 -0.16 -0.77 -0.12 -0.72 -0.09 -0.67 -0.06 -0.62 -0.02 -0.56 0.01 -0.49 0.04 -0.41 0.08 -0.33 0.09 -0.22 0.09 -0.12 0.09 -0.04 0.04 -1.42 -0.84 0.35 -0.42 0.42 -0.3 0.48 -0.21 0.52 -0.15 0.56 -0.1 0.61 -0.05 0.66 -0.02 0.7 0.03 0.75 0.06 0.78 0.1 0.82 0.13 0.86 0.16 0.88 0.2 0.9 0.24 0.92 0.27 0.94 0.3 0.94 0.34 0.96 0.36 0.95 0.4 0.95 0.44 0.94 0.47 0.93 0.5 0.91 0.53 0.89 0.56 0.87 0.6 0.83 0.63 0.8 0.67 0.75 0.7 0.71 0.73 0.66 0.76 0.6 0.8 0.54 0.84 0 0 -1.41 0.84zm36.18 60.64l-0.04 -0.07 -1.13 -1.89 -1.13 -1.9 -1.13 -1.89 -1.13 -1.89 -1.13 -1.89 -1.13 -1.9 -1.13 -1.89 -1.13 -1.89 -1.12 -1.89 -1.14 -1.9 -1.12 -1.89 -1.13 -1.89 -1.13 -1.9 -1.13 -1.89 -1.13 -1.89 -1.13 -1.9 -1.13 -1.89 -1.13 -1.89 -1.13 -1.89 -1.13 -1.9 -1.13 -1.89 -1.13 -1.89 -1.13 -1.9 -1.13 -1.89 -1.12 -1.89 -1.13 -1.89 -1.13 -1.9 -1.13 -1.89 -1.13 -1.89 -1.13 -1.89 -1.13 -1.9 -1.13 -1.89 1.41 -0.84 1.13 1.89 1.13 1.89 1.13 1.9 1.13 1.89 1.13 1.89 1.13 1.89 1.13 1.9 1.13 1.89 1.13 1.89 1.13 1.89 1.12 1.9 1.13 1.89 1.13 1.89 1.13 1.9 1.13 1.89 1.13 1.89 1.13 1.89 1.13 1.9 1.13 1.89 1.13 1.89 1.13 1.9 1.13 1.89 1.13 1.89 1.13 1.89 1.13 1.9 1.13 1.89 1.12 1.89 1.13 1.9 1.13 1.89 1.13 1.89 1.13 1.89 1.13 1.9 -0.04 -0.07 -1.33 0.98zm-0.04 -0.07l1.41 -0.84c0.23,0.39 0.11,0.89 -0.28,1.12 -0.39,0.24 -0.9,0.11 -1.13,-0.28zm76.23 197.64l0 0 -0.5 -5.16 -0.7 -5.42 -0.89 -5.66 -1.07 -5.87 -1.25 -6.07 -1.42 -6.26 -1.58 -6.4 -1.72 -6.56 -1.88 -6.67 -2.01 -6.77 -2.14 -6.86 -2.26 -6.93 -2.37 -6.96 -2.48 -7 -2.58 -7 -2.67 -7 -2.75 -6.96 -2.82 -6.92 -2.9 -6.84 -2.95 -6.76 -3 -6.66 -3.05 -6.53 -3.09 -6.39 -3.11 -6.22 -3.14 -6.05 -3.14 -5.84 -3.16 -5.63 -3.14 -5.39 -3.14 -5.13 -3.12 -4.85 -3.1 -4.56 -3.06 -4.25 1.33 -0.98 3.08 4.28 3.12 4.6 3.14 4.89 3.16 5.16 3.16 5.41 3.17 5.66 3.16 5.86 3.14 6.07 3.13 6.25 3.09 6.41 3.06 6.54 3.01 6.68 2.97 6.78 2.9 6.86 2.83 6.94 2.76 6.98 2.67 7.01 2.59 7.02 2.48 7.01 2.39 6.99 2.26 6.95 2.15 6.88 2.01 6.8 1.88 6.69 1.74 6.58 1.58 6.44 1.43 6.28 1.25 6.1 1.08 5.91 0.9 5.7 0.71 5.47 0.5 5.22 0 0 -1.64 0.13zm-46.17 106.53l0 0 3.08 -0.76 2.98 -0.96 2.89 -1.16 2.79 -1.34 2.69 -1.53 2.59 -1.72 2.49 -1.9 2.39 -2.08 2.29 -2.25 2.19 -2.43 2.09 -2.6 1.98 -2.76 1.87 -2.93 1.77 -3.09 1.66 -3.24 1.55 -3.4 1.43 -3.55 1.33 -3.69 1.21 -3.84 1.1 -3.97 0.98 -4.12 0.87 -4.24 0.74 -4.38 0.63 -4.5 0.5 -4.62 0.39 -4.74 0.26 -4.85 0.14 -4.97 0.01 -5.07 -0.11 -5.18 -0.24 -5.28 -0.37 -5.38 1.64 -0.13 0.38 5.41 0.24 5.32 0.11 5.22 -0.01 5.11 -0.14 5.01 -0.27 4.9 -0.39 4.79 -0.51 4.67 -0.63 4.55 -0.76 4.42 -0.87 4.3 -1 4.16 -1.11 4.04 -1.23 3.9 -1.35 3.75 -1.46 3.61 -1.58 3.47 -1.69 3.31 -1.81 3.15 -1.92 3 -2.03 2.84 -2.14 2.66 -2.26 2.5 -2.36 2.33 -2.47 2.14 -2.58 1.97 -2.68 1.78 -2.79 1.59 -2.89 1.39 -2.99 1.2 -3.09 0.99 -3.19 0.79 0 0 -0.34 -1.61zm-22.94 -15.57l-0.08 -0.28 0.4 0.77 0.42 0.79 0.43 0.79 0.46 0.8 0.48 0.8 0.49 0.79 0.52 0.79 0.54 0.79 0.55 0.77 0.58 0.76 0.6 0.75 0.62 0.72 0.64 0.7 0.65 0.68 0.68 0.66 0.71 0.62 0.72 0.59 0.74 0.55 0.76 0.52 0.79 0.48 0.8 0.43 0.83 0.4 0.85 0.34 0.87 0.29 0.9 0.25 0.92 0.18 0.94 0.13 0.97 0.08 1 0.01 1.02 -0.06 1.05 -0.12 1.09 -0.2 0.34 1.61 -1.18 0.21 -1.16 0.14 -1.12 0.06 -1.11 -0.01 -1.07 -0.08 -1.05 -0.14 -1.02 -0.21 -0.99 -0.27 -0.97 -0.33 -0.94 -0.38 -0.91 -0.43 -0.88 -0.47 -0.86 -0.52 -0.83 -0.56 -0.8 -0.6 -0.77 -0.64 -0.75 -0.67 -0.73 -0.69 -0.69 -0.72 -0.68 -0.74 -0.65 -0.77 -0.62 -0.78 -0.61 -0.79 -0.58 -0.8 -0.56 -0.82 -0.53 -0.82 -0.52 -0.83 -0.49 -0.82 -0.47 -0.82 -0.45 -0.82 -0.43 -0.8 -0.41 -0.8 -0.08 -0.28 1.63 -0.18zm-0.08 -0.28l-1.47 0.74c-0.21,-0.41 -0.04,-0.9 0.36,-1.11 0.41,-0.2 0.9,-0.04 1.11,0.37zm-36.21 -306l0 -0.1 1.64 -0.08 34.65 306.46 -1.63 0.18 -34.66 -306.46zm1.64 -0.18l-1.64 0.18c-0.05,-0.45 0.28,-0.86 0.73,-0.91 0.45,-0.05 0.86,0.27 0.91,0.73zm-1.6 -4.96l1.56 -0.37 0.09 0.38 -0.05 5.05 -1.64 -0.02 0.04 -5.04zm1.65 0.01l-1.65 -0.01c0,-0.46 0.38,-0.82 0.83,-0.82 0.45,0 0.82,0.38 0.82,0.83zm-12.76 -22.03l1.47 -0.74 0 0 11.2 22.39 -1.47 0.74 -11.2 -22.39zm-17.45 -25.3l0 0 -0.5 0.97 -0.34 0.94 -0.2 0.92 -0.06 0.91 0.06 0.9 0.18 0.9 0.29 0.91 0.4 0.9 0.5 0.89 0.59 0.9 0.68 0.88 0.75 0.88 0.82 0.87 0.88 0.85 0.92 0.83 0.96 0.83 0.99 0.8 1.02 0.78 1.02 0.76 1.02 0.74 1.01 0.72 0.99 0.7 0.96 0.67 0.92 0.65 0.88 0.63 0.83 0.6 0.76 0.58 0.69 0.55 0.61 0.53 0.52 0.52 0.44 0.52 0.33 0.53 -1.47 0.74 -0.19 -0.29 -0.31 -0.38 -0.44 -0.43 -0.55 -0.48 -0.64 -0.52 -0.73 -0.55 -0.81 -0.58 -0.86 -0.62 -0.92 -0.65 -0.97 -0.67 -1 -0.7 -1.02 -0.73 -1.03 -0.75 -1.04 -0.78 -1.04 -0.8 -1.02 -0.83 -1 -0.85 -0.96 -0.87 -0.92 -0.9 -0.87 -0.92 -0.81 -0.94 -0.74 -0.97 -0.66 -0.99 -0.57 -1.02 -0.46 -1.05 -0.35 -1.07 -0.21 -1.1 -0.08 -1.12 0.08 -1.14 0.24 -1.15 0.42 -1.15 0.59 -1.14 0 0 1.42 0.84z"/>
   </g>
   <g>
    <path class="fil2" d="M403.8 161.17c-2.63,-4.24 -18.92,-10.45 -21.67,-7.65 -2.52,3.43 -1.32,8.55 6.85,16.75 -7.26,-2.98 -17.83,-20.3 -11.22,-21.58 11.63,-2.26 21.44,5.17 26.04,12.48z"/>
    <path id="1" class="fil1" d="M381.47 153.04l0.07 -0.1 0.45 -0.35 0.51 -0.25 0.55 -0.18 0.59 -0.1 0.64 -0.05 0.67 -0.01 0.71 0.04 0.76 0.08 0.78 0.12 0.81 0.16 0.84 0.18 0.87 0.22 0.88 0.24 0.89 0.28 0.9 0.3 0.91 0.31 0.9 0.35 0.9 0.36 0.89 0.37 0.87 0.39 0.85 0.41 0.83 0.42 0.8 0.42 0.77 0.44 0.73 0.44 0.68 0.44 0.64 0.45 0.59 0.45 0.53 0.46 0.47 0.46 0.41 0.47 0.34 0.48 -1.4 0.87 -0.23 -0.33 -0.31 -0.35 -0.39 -0.38 -0.46 -0.4 -0.52 -0.4 -0.59 -0.42 -0.64 -0.41 -0.68 -0.41 -0.73 -0.42 -0.76 -0.4 -0.8 -0.4 -0.82 -0.39 -0.84 -0.38 -0.86 -0.36 -0.87 -0.35 -0.87 -0.33 -0.87 -0.31 -0.87 -0.28 -0.86 -0.26 -0.84 -0.24 -0.82 -0.21 -0.79 -0.17 -0.76 -0.14 -0.72 -0.11 -0.67 -0.08 -0.63 -0.03 -0.56 0 -0.49 0.04 -0.42 0.07 -0.33 0.11 -0.23 0.11 -0.15 0.12 0.07 -0.09 -1.32 -0.97zm0.07 -0.1l1.18 1.16c-0.32,0.32 -0.84,0.33 -1.17,0.01 -0.32,-0.32 -0.33,-0.84 -0.01,-1.17zm7.76 16.57l-0.9 1.34 -0.76 -0.77 -0.71 -0.75 -0.68 -0.74 -0.63 -0.71 -0.6 -0.71 -0.56 -0.68 -0.53 -0.68 -0.49 -0.65 -0.45 -0.64 -0.42 -0.63 -0.38 -0.62 -0.35 -0.6 -0.32 -0.58 -0.28 -0.58 -0.25 -0.57 -0.22 -0.55 -0.18 -0.54 -0.16 -0.53 -0.12 -0.52 -0.09 -0.51 -0.06 -0.5 -0.03 -0.49 0.01 -0.48 0.03 -0.47 0.06 -0.46 0.1 -0.45 0.12 -0.43 0.15 -0.42 0.18 -0.41 0.2 -0.39 0.23 -0.39 0.26 -0.36 1.32 0.97 -0.19 0.28 -0.18 0.3 -0.15 0.3 -0.14 0.31 -0.11 0.31 -0.09 0.33 -0.07 0.33 -0.05 0.35 -0.03 0.36 0 0.37 0.02 0.39 0.05 0.41 0.07 0.41 0.11 0.44 0.13 0.45 0.16 0.47 0.19 0.49 0.22 0.5 0.26 0.52 0.29 0.54 0.32 0.55 0.36 0.58 0.39 0.59 0.42 0.6 0.47 0.63 0.5 0.64 0.54 0.66 0.58 0.67 0.62 0.7 0.65 0.71 0.7 0.74 0.74 0.75 -0.9 1.34 0.63 -1.52zm-0.9 1.34l1.17 -1.16c0.32,0.32 0.32,0.84 -0.01,1.16 -0.32,0.32 -0.84,0.32 -1.16,0zm-10.48 -21.35l0 0 -0.42 0.12 -0.31 0.16 -0.24 0.21 -0.18 0.27 -0.14 0.33 -0.1 0.43 -0.03 0.5 0.02 0.58 0.09 0.65 0.16 0.71 0.22 0.75 0.27 0.79 0.33 0.83 0.39 0.85 0.43 0.87 0.48 0.89 0.51 0.89 0.56 0.89 0.59 0.89 0.61 0.87 0.64 0.86 0.67 0.84 0.68 0.81 0.69 0.77 0.7 0.73 0.71 0.69 0.7 0.63 0.7 0.58 0.69 0.51 0.68 0.45 0.65 0.37 0.63 0.29 -0.63 1.52 -0.75 -0.35 -0.76 -0.43 -0.76 -0.5 -0.76 -0.56 -0.76 -0.63 -0.76 -0.68 -0.75 -0.73 -0.74 -0.77 -0.73 -0.81 -0.71 -0.85 -0.69 -0.87 -0.67 -0.9 -0.64 -0.91 -0.62 -0.93 -0.58 -0.93 -0.54 -0.94 -0.5 -0.93 -0.46 -0.92 -0.41 -0.92 -0.36 -0.89 -0.3 -0.87 -0.25 -0.85 -0.18 -0.82 -0.11 -0.78 -0.03 -0.76 0.05 -0.72 0.16 -0.68 0.26 -0.64 0.4 -0.56 0.53 -0.47 0.63 -0.34 0.72 -0.21 0 0 0.32 1.62zm26.58 11.24l-1.4 0.87 -0.43 -0.66 -0.46 -0.67 -0.49 -0.66 -0.52 -0.66 -0.55 -0.65 -0.57 -0.64 -0.6 -0.64 -0.62 -0.62 -0.65 -0.61 -0.68 -0.59 -0.69 -0.58 -0.73 -0.56 -0.74 -0.54 -0.76 -0.51 -0.79 -0.49 -0.8 -0.47 -0.82 -0.44 -0.85 -0.41 -0.86 -0.38 -0.88 -0.34 -0.89 -0.31 -0.91 -0.28 -0.93 -0.23 -0.94 -0.2 -0.96 -0.16 -0.97 -0.12 -0.98 -0.07 -1 -0.02 -1.01 0.02 -1.02 0.08 -1.04 0.12 -1.04 0.18 -0.32 -1.62 1.13 -0.19 1.11 -0.13 1.1 -0.08 1.09 -0.03 1.07 0.03 1.07 0.08 1.04 0.12 1.03 0.17 1.01 0.21 1 0.26 0.98 0.29 0.96 0.34 0.93 0.36 0.92 0.41 0.9 0.43 0.88 0.47 0.85 0.5 0.84 0.52 0.81 0.55 0.78 0.56 0.76 0.59 0.74 0.62 0.71 0.62 0.69 0.65 0.66 0.66 0.63 0.67 0.61 0.67 0.58 0.69 0.55 0.7 0.52 0.7 0.49 0.71 0.46 0.71 -1.4 0.87 1.4 -0.87zm-1.4 0.87l1.4 -0.87c0.24,0.38 0.12,0.89 -0.26,1.13 -0.38,0.24 -0.89,0.13 -1.14,-0.26z"/>
   </g>
   <g>
    <path class="fil0" d="M391.13 157.34c-2.17,0 -3.93,0.43 -3.93,0.97 0,0.53 1.76,0.96 3.93,0.96 2.17,0 3.94,-0.43 3.94,-0.96 0,-0.54 -1.77,-0.97 -3.94,-0.97z"/>
    <path id="1" class="fil1" d="M386.38 158.31l0 0 0.02 -0.22 0.06 -0.2 0.09 -0.17 0.1 -0.14 0.11 -0.11 0.11 -0.1 0.11 -0.08 0.12 -0.07 0.12 -0.07 0.12 -0.05 0.12 -0.06 0.13 -0.05 0.14 -0.04 0.14 -0.05 0.14 -0.04 0.15 -0.04 0.15 -0.03 0.16 -0.04 0.16 -0.03 0.17 -0.03 0.17 -0.02 0.18 -0.03 0.18 -0.02 0.19 -0.02 0.19 -0.02 0.19 -0.02 0.2 -0.01 0.2 -0.01 0.2 -0.01 0.21 -0.01 0.21 0 0.21 0 0 1.64 -0.19 0 -0.19 0.01 -0.18 0 -0.19 0.01 -0.18 0.01 -0.17 0.02 -0.18 0.01 -0.16 0.01 -0.16 0.02 -0.16 0.02 -0.15 0.02 -0.15 0.03 -0.14 0.02 -0.13 0.03 -0.13 0.02 -0.12 0.03 -0.11 0.03 -0.11 0.03 -0.09 0.03 -0.09 0.03 -0.07 0.03 -0.06 0.02 -0.06 0.03 -0.04 0.02 -0.02 0.02 -0.01 0 0 0 0.02 -0.02 0.04 -0.05 0.03 -0.07 0.03 -0.1 0.02 -0.11 0 0 -1.65 0zm4.75 1.78l0 0 -0.21 0 -0.21 0 -0.21 -0.01 -0.2 -0.01 -0.2 -0.01 -0.2 -0.01 -0.19 -0.02 -0.19 -0.02 -0.19 -0.02 -0.18 -0.02 -0.18 -0.02 -0.17 -0.03 -0.17 -0.03 -0.16 -0.03 -0.16 -0.04 -0.15 -0.03 -0.15 -0.04 -0.14 -0.04 -0.14 -0.04 -0.14 -0.05 -0.13 -0.05 -0.12 -0.05 -0.13 -0.06 -0.12 -0.07 -0.11 -0.07 -0.11 -0.08 -0.11 -0.1 -0.11 -0.11 -0.1 -0.14 -0.09 -0.17 -0.06 -0.2 -0.02 -0.21 1.65 0 -0.02 -0.12 -0.03 -0.1 -0.04 -0.08 -0.03 -0.04 -0.02 -0.02 0 -0.01 0.01 0.01 0.03 0.02 0.04 0.02 0.04 0.02 0.07 0.03 0.08 0.03 0.08 0.03 0.09 0.03 0.11 0.03 0.11 0.03 0.12 0.03 0.13 0.02 0.13 0.03 0.14 0.02 0.15 0.03 0.15 0.02 0.16 0.02 0.16 0.02 0.16 0.01 0.18 0.02 0.17 0.01 0.18 0.01 0.19 0.01 0.18 0 0.19 0.01 0.19 0 0 0 0 1.64zm4.76 -1.78l0 0 -0.02 0.21 -0.06 0.2 -0.09 0.17 -0.1 0.14 -0.11 0.11 -0.11 0.1 -0.11 0.08 -0.12 0.07 -0.11 0.07 -0.13 0.06 -0.13 0.05 -0.12 0.05 -0.14 0.05 -0.14 0.04 -0.14 0.04 -0.15 0.04 -0.15 0.03 -0.16 0.04 -0.16 0.03 -0.17 0.03 -0.18 0.03 -0.18 0.02 -0.17 0.02 -0.19 0.02 -0.19 0.02 -0.19 0.02 -0.2 0.01 -0.2 0.01 -0.21 0.01 -0.2 0.01 -0.21 0 -0.22 0 0 -1.64 0.2 0 0.19 -0.01 0.18 0 0.18 -0.01 0.18 -0.01 0.18 -0.01 0.17 -0.02 0.17 -0.01 0.16 -0.02 0.16 -0.02 0.15 -0.02 0.15 -0.03 0.14 -0.02 0.13 -0.03 0.13 -0.02 0.12 -0.03 0.11 -0.03 0.1 -0.03 0.1 -0.03 0.08 -0.03 0.08 -0.03 0.06 -0.03 0.05 -0.02 0.04 -0.02 0.03 -0.02 0.01 -0.01 -0.01 0.01 -0.02 0.02 -0.03 0.04 -0.04 0.08 -0.03 0.1 -0.01 0.12 0 0 1.65 0zm-4.76 -1.79l0 0 0.22 0 0.21 0 0.2 0.01 0.21 0.01 0.2 0.01 0.2 0.01 0.19 0.02 0.19 0.02 0.19 0.02 0.17 0.02 0.18 0.03 0.18 0.02 0.17 0.03 0.16 0.03 0.15 0.04 0.16 0.03 0.15 0.04 0.14 0.04 0.14 0.05 0.13 0.04 0.14 0.05 0.12 0.06 0.12 0.05 0.12 0.07 0.12 0.07 0.11 0.08 0.11 0.1 0.11 0.11 0.1 0.14 0.09 0.17 0.06 0.2 0.02 0.22 -1.65 0 0.01 0.11 0.04 0.1 0.03 0.07 0.03 0.05 0.02 0.02 0.01 0 -0.01 0 -0.03 -0.02 -0.03 -0.02 -0.06 -0.03 -0.06 -0.02 -0.08 -0.03 -0.08 -0.03 -0.1 -0.03 -0.1 -0.03 -0.11 -0.03 -0.12 -0.02 -0.13 -0.03 -0.13 -0.03 -0.14 -0.02 -0.15 -0.03 -0.15 -0.02 -0.16 -0.02 -0.16 -0.02 -0.17 -0.01 -0.17 -0.01 -0.18 -0.02 -0.18 -0.01 -0.18 -0.01 -0.18 0 -0.19 -0.01 -0.2 0 0 0 0 -1.64z"/>
   </g>
   <g>
    <path class="fil0" d="M383.59 159.88c-0.44,0 -0.79,0.63 -0.79,1.41 0,0.78 0.35,1.41 0.79,1.41 0.43,0 0.79,-0.63 0.79,-1.41 0,-0.78 -0.36,-1.41 -0.79,-1.41z"/>
    <path id="1" class="fil1" d="M381.98 161.29l0 0 0 -0.09 0 -0.1 0.01 -0.1 0.01 -0.08 0.01 -0.1 0.02 -0.08 0.01 -0.09 0.02 -0.1 0.03 -0.08 0.02 -0.08 0.03 -0.1 0.03 -0.08 0.03 -0.07 0.04 -0.09 0.03 -0.08 0.04 -0.07 0.05 -0.08 0.05 -0.08 0.05 -0.07 0.06 -0.07 0.05 -0.07 0.07 -0.06 0.07 -0.08 0.08 -0.05 0.08 -0.06 0.08 -0.05 0.09 -0.05 0.12 -0.04 0.09 -0.03 0.11 -0.03 0.12 -0.01 0.11 -0.01 0 1.65 0.03 0 0.03 -0.01 0.04 -0.01 0.01 0 0.04 -0.02 0.02 0 0.01 -0.01 0.01 -0.01 0 0 0.01 -0.01 0 0 -0.01 0.01 -0.01 0.01 0 0.01 -0.01 0.01 -0.01 0.02 -0.01 0.02 -0.01 0.02 -0.01 0.02 -0.01 0.04 -0.02 0.03 0 0.02 -0.01 0.05 -0.02 0.04 0 0.03 -0.01 0.04 -0.01 0.04 0 0.05 -0.01 0.05 0 0.05 0 0.04 0 0.05 0 0 -1.65 0zm1.61 2.23l0 0 -0.11 -0.01 -0.12 -0.01 -0.11 -0.03 -0.09 -0.02 -0.12 -0.05 -0.09 -0.05 -0.08 -0.05 -0.08 -0.06 -0.08 -0.05 -0.07 -0.08 -0.07 -0.06 -0.05 -0.06 -0.06 -0.08 -0.06 -0.08 -0.04 -0.07 -0.05 -0.08 -0.04 -0.07 -0.03 -0.08 -0.04 -0.08 -0.03 -0.08 -0.03 -0.08 -0.03 -0.1 -0.02 -0.08 -0.03 -0.08 -0.02 -0.09 -0.01 -0.09 -0.02 -0.09 -0.01 -0.09 -0.01 -0.09 -0.01 -0.1 0 -0.1 0 -0.09 1.65 0 0 0.05 0 0.05 0 0.04 0.01 0.05 0 0.05 0.01 0.04 0.01 0.04 0 0.03 0.02 0.05 0.01 0.04 0 0.02 0.02 0.04 0.01 0.03 0.01 0.02 0.01 0.02 0.01 0.03 0.01 0.01 0.01 0.02 0 0 0.01 0.01 0.01 0.01 0 0 -0.01 -0.01 0 0 -0.01 -0.01 -0.01 0 -0.02 -0.01 -0.04 -0.02 -0.01 0 -0.04 -0.01 -0.03 -0.01 -0.03 0 0 0 0 1.65zm1.61 -2.23l0 0 0 0.09 0 0.1 -0.01 0.1 -0.01 0.09 -0.01 0.09 -0.02 0.09 -0.01 0.09 -0.02 0.09 -0.03 0.09 -0.02 0.08 -0.03 0.08 -0.03 0.09 -0.03 0.08 -0.03 0.08 -0.05 0.08 -0.04 0.08 -0.04 0.08 -0.05 0.06 -0.05 0.08 -0.06 0.07 -0.06 0.07 -0.06 0.07 -0.08 0.07 -0.07 0.05 -0.08 0.06 -0.08 0.05 -0.09 0.05 -0.12 0.05 -0.1 0.02 -0.11 0.03 -0.11 0.01 -0.11 0.01 0 -1.65 -0.03 0 -0.04 0.01 -0.03 0.01 -0.01 0 -0.04 0.02 -0.02 0.01 -0.01 0 -0.01 0.01 0 0 -0.01 0.01 0.01 -0.01 0 0 0 0 0.01 -0.01 0.01 -0.02 0.01 -0.02 0.01 -0.02 0.01 -0.01 0.01 -0.03 0.01 -0.03 0.01 -0.03 0.01 -0.04 0.02 -0.04 0 -0.03 0.01 -0.04 0.01 -0.04 0.01 -0.04 0 -0.05 0.01 -0.05 0 -0.04 0 -0.05 0 -0.05 0 0 1.65 0zm-1.61 -2.23l0 0 0.11 0.01 0.11 0.01 0.11 0.03 0.1 0.03 0.12 0.04 0.09 0.05 0.08 0.05 0.08 0.06 0.07 0.05 0.08 0.07 0.06 0.07 0.07 0.07 0.05 0.08 0.05 0.06 0.05 0.07 0.04 0.08 0.04 0.08 0.05 0.09 0.03 0.08 0.03 0.07 0.03 0.09 0.03 0.08 0.02 0.08 0.03 0.09 0.02 0.1 0.01 0.08 0.02 0.09 0.01 0.1 0.01 0.08 0.01 0.1 0 0.1 0 0.09 -1.65 0 0 -0.05 0 -0.04 0 -0.05 -0.01 -0.05 0 -0.05 -0.01 -0.03 -0.01 -0.05 -0.01 -0.04 0 -0.03 -0.02 -0.04 -0.01 -0.04 -0.01 -0.02 -0.01 -0.04 -0.01 -0.02 -0.01 -0.02 -0.01 -0.02 -0.01 -0.01 -0.01 -0.02 -0.01 -0.02 -0.01 -0.01 0.01 0.01 -0.01 0 0.01 0 0 0 0.01 0.01 0.01 0.01 0.02 0 0.04 0.02 0.01 0 0.03 0.01 0.04 0.01 0.03 0 0 0 0 -1.65z"/>
   </g>
   <g>
    <path class="fil1" d="M386.32 159.47l-1.42 0.83c-0.23,-0.4 -0.09,-0.9 0.3,-1.13 0.39,-0.22 0.9,-0.09 1.12,0.3zm3.25 5.6l-0.95 1.2 -0.48 -0.37 -3.24 -5.6 1.42 -0.83 3.25 5.6zm-1.43 0.83l1.43 -0.83c0.22,0.4 0.09,0.9 -0.3,1.13 -0.4,0.22 -0.9,0.09 -1.13,-0.3zm3.23 -0.52l-0.47 1.58 -2.28 -0.69 0.47 -1.57 2.28 0.68zm-0.47 1.58l0.47 -1.58c0.44,0.13 0.68,0.59 0.55,1.03 -0.13,0.43 -0.59,0.68 -1.02,0.55z"/>
   </g>
   <g>
    <path class="fil0" d="M408.54 280.27c11.77,56.81 40.35,126.8 11.97,205.88 -10,-31.56 -31.04,-77.87 -30.03,-94.67l-36.14 75.84c-10.17,21.38 -5.64,40.49 -8.46,60.73 -7.84,56.23 -112.66,53.73 -145.76,73.13 -10.54,2.26 -18.11,2.33 -20.36,-1.52 -8.14,-8.15 22.4,-16.29 18.32,-18.84l-21.88 15.78c-11.2,9.16 -25.96,1.53 -20.87,-7.12 6.63,-9.89 31.45,-24 26.98,-20.86l-30.54 21.37c-5.99,4.18 -13.24,-5.6 -12.73,-14.26 11.71,-21.88 35.29,-21.79 36.43,-24.21 2.25,-4.8 -31.94,10.6 -35.98,26.31 -3.59,13.94 -27.3,2.21 -27.43,-11.77 -0.17,-19.51 20.77,-30.32 64.65,-37.66l-47.34 12.21c-14.56,3.76 -27.49,-38.93 -6.11,-50.39 37.16,-3.05 72.53,20.36 144.63,-40.24 8.47,-7.12 16.4,-28.3 24.26,-46.69 15.81,-37.02 26.06,-89.58 51.25,-138.55 25.74,-34.38 59.3,-14.76 65.14,15.53z"/>
    <path id="1" class="fil1" d="M421.3 485.9l-1.56 -0.03 2.49 -7.35 2.16 -7.31 1.86 -7.25 1.57 -7.19 1.29 -7.14 1.03 -7.08 0.77 -7.02 0.54 -6.97 0.31 -6.91 0.1 -6.85 -0.1 -6.79 -0.28 -6.73 -0.46 -6.66 -0.61 -6.61 -0.75 -6.55 -0.89 -6.48 -1.01 -6.42 -1.1 -6.35 -1.2 -6.29 -1.28 -6.22 -1.34 -6.16 -1.39 -6.08 -1.43 -6.02 -1.45 -5.96 -1.46 -5.88 -1.46 -5.81 -1.44 -5.74 -1.41 -5.67 -1.36 -5.59 -1.31 -5.53 -1.24 -5.45 -1.15 -5.37 1.61 -0.33 1.15 5.35 1.23 5.43 1.31 5.51 1.36 5.59 1.41 5.66 1.44 5.74 1.46 5.81 1.46 5.89 1.45 5.96 1.43 6.03 1.4 6.11 1.34 6.17 1.28 6.24 1.2 6.31 1.12 6.38 1.01 6.45 0.89 6.52 0.76 6.58 0.61 6.64 0.46 6.71 0.29 6.78 0.1 6.83 -0.1 6.9 -0.32 6.96 -0.54 7.02 -0.78 7.08 -1.03 7.14 -1.3 7.19 -1.58 7.25 -1.88 7.31 -2.19 7.36 -2.5 7.42 -1.56 -0.03 1.57 -0.5zm-1.56 -0.03l1.55 0.56c-0.15,0.43 -0.63,0.65 -1.05,0.5 -0.43,-0.16 -0.65,-0.63 -0.5,-1.06zm-30 -94.75l1.57 0.41 -0.03 1.59 0.08 1.78 0.21 1.94 0.31 2.1 0.42 2.24 0.52 2.38 0.61 2.51 0.7 2.63 0.78 2.74 0.86 2.84 0.92 2.93 0.99 3.02 1.04 3.1 1.1 3.17 1.14 3.22 1.18 3.28 1.21 3.32 1.24 3.36 1.25 3.38 1.28 3.41 1.28 3.41 1.28 3.42 1.28 3.42 1.27 3.4 1.25 3.38 1.23 3.35 1.21 3.32 1.17 3.27 1.12 3.21 1.09 3.16 1.03 3.08 0.97 3.01 -1.57 0.5 -0.97 -2.99 -1.02 -3.07 -1.08 -3.15 -1.13 -3.2 -1.16 -3.27 -1.2 -3.3 -1.23 -3.35 -1.25 -3.38 -1.27 -3.4 -1.28 -3.41 -1.28 -3.42 -1.29 -3.42 -1.27 -3.4 -1.26 -3.39 -1.24 -3.36 -1.21 -3.33 -1.18 -3.29 -1.14 -3.23 -1.1 -3.18 -1.05 -3.11 -0.99 -3.03 -0.93 -2.96 -0.87 -2.86 -0.78 -2.76 -0.71 -2.66 -0.62 -2.55 -0.53 -2.42 -0.43 -2.3 -0.32 -2.16 -0.22 -2.02 -0.09 -1.88 0.03 -1.72 1.57 0.4 -1.49 -0.71zm1.57 0.41l-1.65 -0.1c0.03,-0.46 0.42,-0.8 0.87,-0.77 0.46,0.02 0.8,0.41 0.78,0.87zm-36.22 76.14l-1.49 -0.71 0 0 36.14 -75.84 1.49 0.71 -36.14 75.84zm-1.49 -0.71l1.49 0.71c-0.2,0.41 -0.69,0.59 -1.1,0.39 -0.41,-0.19 -0.58,-0.69 -0.39,-1.1zm-8.54 60.98l0 0 0.24 -1.88 0.21 -1.87 0.17 -1.87 0.13 -1.87 0.11 -1.86 0.09 -1.86 0.07 -1.87 0.06 -1.86 0.04 -1.85 0.04 -1.87 0.03 -1.86 0.04 -1.86 0.04 -1.87 0.05 -1.87 0.07 -1.87 0.08 -1.88 0.11 -1.88 0.12 -1.89 0.17 -1.9 0.19 -1.9 0.23 -1.91 0.28 -1.92 0.32 -1.92 0.37 -1.94 0.42 -1.94 0.49 -1.95 0.55 -1.97 0.61 -1.97 0.69 -1.99 0.76 -1.99 0.84 -2.01 0.92 -2.03 1.49 0.71 -0.9 1.98 -0.82 1.96 -0.74 1.94 -0.67 1.94 -0.6 1.93 -0.54 1.92 -0.47 1.9 -0.42 1.91 -0.36 1.89 -0.32 1.89 -0.27 1.88 -0.23 1.87 -0.19 1.87 -0.15 1.87 -0.13 1.87 -0.11 1.86 -0.08 1.86 -0.06 1.86 -0.05 1.86 -0.04 1.86 -0.04 1.86 -0.03 1.87 -0.04 1.86 -0.05 1.87 -0.05 1.87 -0.07 1.87 -0.09 1.89 -0.11 1.88 -0.14 1.89 -0.17 1.9 -0.21 1.9 -0.25 1.91 0 0 -1.63 -0.22zm-145.11 72.44l-0.25 0.09 3.37 -1.78 3.74 -1.67 4.1 -1.56 4.41 -1.47 4.7 -1.4 4.97 -1.34 5.19 -1.3 5.39 -1.28 5.57 -1.26 5.7 -1.27 5.81 -1.28 5.89 -1.32 5.93 -1.37 5.95 -1.43 5.94 -1.51 5.89 -1.6 5.81 -1.7 5.71 -1.83 5.56 -1.96 5.4 -2.12 5.19 -2.27 4.96 -2.46 4.7 -2.64 4.4 -2.85 4.08 -3.07 3.72 -3.3 3.34 -3.55 2.92 -3.8 2.49 -4.08 2.02 -4.38 1.52 -4.67 0.99 -5.01 1.63 0.22 -1.03 5.2 -1.58 4.86 -2.1 4.55 -2.58 4.24 -3.03 3.94 -3.44 3.66 -3.83 3.39 -4.18 3.15 -4.49 2.9 -4.78 2.7 -5.03 2.49 -5.26 2.3 -5.45 2.14 -5.62 1.98 -5.75 1.84 -5.84 1.72 -5.92 1.61 -5.96 1.51 -5.97 1.43 -5.95 1.37 -5.89 1.33 -5.82 1.28 -5.69 1.27 -5.56 1.26 -5.37 1.27 -5.17 1.29 -4.93 1.33 -4.66 1.39 -4.35 1.45 -4.02 1.53 -3.65 1.63 -3.25 1.72 -0.25 0.1 -0.34 -1.61zm-0.25 0.09l0.84 1.42c-0.4,0.23 -0.9,0.1 -1.13,-0.29 -0.23,-0.39 -0.1,-0.9 0.29,-1.13zm-19.36 -1.4l0.13 0.17 0.19 0.29 0.21 0.27 0.24 0.25 0.26 0.23 0.29 0.23 0.33 0.2 0.35 0.19 0.39 0.18 0.41 0.16 0.45 0.14 0.47 0.13 0.51 0.11 0.53 0.09 0.57 0.08 0.59 0.06 0.61 0.04 0.65 0.02 0.67 0.01 0.69 -0.01 0.72 -0.02 0.74 -0.04 0.77 -0.06 0.79 -0.08 0.81 -0.09 0.83 -0.1 0.86 -0.12 0.87 -0.14 0.9 -0.15 0.92 -0.16 0.93 -0.18 0.95 -0.19 0.98 -0.2 0.34 1.61 -0.98 0.21 -0.97 0.19 -0.96 0.18 -0.93 0.17 -0.92 0.15 -0.89 0.14 -0.88 0.12 -0.86 0.11 -0.83 0.09 -0.82 0.08 -0.8 0.06 -0.77 0.04 -0.76 0.03 -0.73 0.01 -0.71 -0.01 -0.69 -0.02 -0.67 -0.05 -0.65 -0.06 -0.62 -0.09 -0.6 -0.1 -0.57 -0.13 -0.56 -0.15 -0.53 -0.17 -0.5 -0.19 -0.48 -0.22 -0.45 -0.25 -0.43 -0.27 -0.4 -0.3 -0.37 -0.33 -0.34 -0.36 -0.3 -0.39 -0.27 -0.41 0.13 0.17 1.16 -1.17zm0.13 0.17l-1.42 0.83c-0.23,-0.39 -0.1,-0.9 0.29,-1.12 0.4,-0.23 0.9,-0.1 1.13,0.29zm17.13 -19.08l0.92 -0.03 0.52 0.48 0.24 0.74 -0.17 0.7 -0.36 0.53 -0.48 0.45 -0.59 0.45 -0.69 0.46 -0.78 0.47 -0.88 0.49 -0.95 0.51 -1.01 0.53 -1.07 0.54 -1.1 0.57 -1.13 0.59 -1.14 0.6 -1.14 0.62 -1.12 0.63 -1.1 0.65 -1.05 0.66 -1 0.67 -0.92 0.67 -0.84 0.68 -0.74 0.68 -0.63 0.67 -0.5 0.66 -0.37 0.63 -0.23 0.61 -0.09 0.58 0.04 0.56 0.18 0.58 0.36 0.62 0.56 0.66 -1.16 1.17 -0.74 -0.87 -0.52 -0.9 -0.3 -0.94 -0.07 -0.95 0.15 -0.93 0.33 -0.89 0.49 -0.85 0.61 -0.81 0.73 -0.78 0.83 -0.75 0.91 -0.74 0.98 -0.72 1.05 -0.69 1.09 -0.69 1.13 -0.66 1.15 -0.65 1.16 -0.63 1.15 -0.61 1.14 -0.59 1.1 -0.57 1.06 -0.54 1 -0.53 0.93 -0.5 0.84 -0.47 0.74 -0.44 0.61 -0.4 0.48 -0.36 0.31 -0.3 0.12 -0.16 0 0.06 0.05 0.17 -0.04 -0.03 0.91 -0.03 -0.96 -1.33zm0.92 -0.03l-0.87 1.39c-0.39,-0.24 -0.5,-0.75 -0.26,-1.13 0.24,-0.39 0.74,-0.5 1.13,-0.26zm-21.84 17.14l-1 -1.3 0.04 -0.04 21.88 -15.77 0.96 1.33 -21.88 15.78zm-0.96 -1.34l0.96 1.34c-0.37,0.26 -0.89,0.18 -1.15,-0.19 -0.27,-0.37 -0.18,-0.88 0.19,-1.15zm-19.71 -6l0.03 -0.04 -0.38 0.73 -0.27 0.71 -0.18 0.69 -0.08 0.67 0 0.65 0.08 0.63 0.17 0.61 0.23 0.6 0.31 0.57 0.39 0.55 0.45 0.53 0.52 0.5 0.59 0.46 0.64 0.43 0.7 0.39 0.76 0.35 0.8 0.3 0.85 0.25 0.88 0.19 0.92 0.14 0.96 0.07 0.97 0.02 1 -0.05 1.02 -0.12 1.04 -0.19 1.04 -0.27 1.04 -0.35 1.05 -0.42 1.05 -0.51 1.04 -0.59 1.03 -0.69 1.02 -0.77 1.04 1.27 -1.1 0.84 -1.13 0.75 -1.13 0.65 -1.15 0.55 -1.15 0.47 -1.15 0.38 -1.15 0.29 -1.14 0.21 -1.13 0.14 -1.1 0.06 -1.09 -0.02 -1.06 -0.09 -1.03 -0.15 -1 -0.22 -0.96 -0.28 -0.91 -0.34 -0.87 -0.4 -0.81 -0.45 -0.76 -0.51 -0.7 -0.55 -0.63 -0.61 -0.56 -0.65 -0.49 -0.69 -0.4 -0.74 -0.31 -0.78 -0.21 -0.81 -0.11 -0.84 -0.01 -0.86 0.11 -0.87 0.23 -0.89 0.34 -0.88 0.46 -0.89 0.03 -0.04 1.36 0.91zm0.03 -0.04l-1.42 -0.83c0.23,-0.39 0.74,-0.52 1.13,-0.29 0.39,0.23 0.52,0.73 0.29,1.12zm25.79 -21.95l0 0 0.31 -0.22 0.08 -0.06 0.47 1.32 0.32 -0.01 -0.21 0.1 -0.37 0.19 -0.5 0.27 -0.61 0.35 -0.72 0.42 -0.81 0.48 -0.9 0.55 -0.97 0.6 -1.04 0.66 -1.1 0.71 -1.15 0.75 -1.19 0.8 -1.22 0.83 -1.25 0.87 -1.26 0.89 -1.26 0.93 -1.27 0.94 -1.25 0.96 -1.23 0.98 -1.2 0.99 -1.17 0.99 -1.11 0.99 -1.06 0.99 -1 0.98 -0.92 0.97 -0.84 0.95 -0.74 0.93 -0.65 0.89 -1.36 -0.91 0.7 -0.98 0.79 -0.99 0.89 -1 0.96 -1.01 1.03 -1.02 1.09 -1.02 1.14 -1.01 1.19 -1.02 1.23 -1 1.25 -0.99 1.27 -0.98 1.28 -0.96 1.28 -0.93 1.28 -0.91 1.26 -0.88 1.23 -0.84 1.2 -0.8 1.16 -0.76 1.11 -0.72 1.06 -0.66 0.98 -0.62 0.91 -0.55 0.83 -0.49 0.73 -0.43 0.63 -0.36 0.53 -0.29 0.42 -0.21 0.32 -0.15 0.57 -0.08 0.44 1.43 -0.27 0.24 -0.36 0.26 0 0 -0.95 -1.35zm-29.59 22.72l-0.95 -1.35 0 0 30.54 -21.37 0.95 1.35 -30.54 21.37zm-12.47 -14.54l0.09 -0.34 -0.02 0.77 0.02 0.78 0.05 0.77 0.1 0.78 0.13 0.78 0.17 0.77 0.21 0.76 0.23 0.75 0.27 0.73 0.29 0.72 0.33 0.69 0.35 0.67 0.37 0.65 0.4 0.62 0.41 0.58 0.43 0.55 0.45 0.51 0.46 0.47 0.47 0.43 0.48 0.38 0.49 0.33 0.49 0.28 0.49 0.23 0.49 0.17 0.49 0.13 0.48 0.07 0.49 0.01 0.48 -0.04 0.48 -0.11 0.48 -0.16 0.48 -0.23 0.49 -0.31 0.95 1.35 -0.64 0.4 -0.66 0.31 -0.66 0.23 -0.68 0.14 -0.67 0.06 -0.67 -0.01 -0.67 -0.1 -0.65 -0.16 -0.64 -0.23 -0.62 -0.29 -0.6 -0.35 -0.59 -0.4 -0.57 -0.45 -0.55 -0.49 -0.53 -0.54 -0.5 -0.58 -0.49 -0.61 -0.46 -0.65 -0.44 -0.68 -0.41 -0.71 -0.38 -0.74 -0.35 -0.76 -0.33 -0.79 -0.29 -0.8 -0.25 -0.81 -0.23 -0.83 -0.18 -0.85 -0.15 -0.85 -0.1 -0.85 -0.07 -0.86 -0.02 -0.87 0.03 -0.85 0.1 -0.34 1.45 0.77zm0.09 -0.34l-1.64 -0.09c0.02,-0.46 0.42,-0.8 0.87,-0.78 0.45,0.03 0.8,0.42 0.77,0.87zm36.35 -23.91l0 0 -0.36 0.48 -0.44 0.31 -0.5 0.25 -0.58 0.22 -0.67 0.22 -0.75 0.22 -0.84 0.23 -0.92 0.24 -0.99 0.26 -1.07 0.29 -1.13 0.32 -1.19 0.35 -1.25 0.39 -1.29 0.43 -1.33 0.48 -1.37 0.53 -1.4 0.59 -1.43 0.64 -1.44 0.71 -1.45 0.78 -1.45 0.85 -1.45 0.93 -1.45 1.01 -1.43 1.1 -1.42 1.19 -1.38 1.28 -1.36 1.38 -1.32 1.49 -1.28 1.6 -1.22 1.7 -1.17 1.83 -1.11 1.95 -1.45 -0.77 1.15 -2.03 1.21 -1.9 1.28 -1.78 1.33 -1.66 1.37 -1.55 1.42 -1.44 1.44 -1.34 1.48 -1.23 1.49 -1.15 1.5 -1.05 1.51 -0.96 1.51 -0.89 1.5 -0.8 1.49 -0.74 1.47 -0.66 1.44 -0.61 1.41 -0.54 1.37 -0.5 1.33 -0.44 1.27 -0.4 1.22 -0.35 1.15 -0.32 1.08 -0.3 0.99 -0.26 0.92 -0.24 0.82 -0.23 0.71 -0.2 0.61 -0.2 0.47 -0.18 0.33 -0.16 0.15 -0.11 -0.02 0.04 0 0 1.49 0.7zm-37.52 25.76l0 0 0.49 -1.56 0.66 -1.53 0.81 -1.52 0.96 -1.49 1.08 -1.47 1.19 -1.44 1.3 -1.41 1.38 -1.39 1.46 -1.34 1.53 -1.31 1.58 -1.27 1.63 -1.23 1.65 -1.17 1.67 -1.13 1.67 -1.08 1.67 -1.01 1.65 -0.96 1.62 -0.89 1.57 -0.82 1.52 -0.76 1.46 -0.68 1.38 -0.6 1.29 -0.51 1.19 -0.44 1.08 -0.35 0.97 -0.25 0.85 -0.16 0.75 -0.05 0.68 0.09 0.68 0.42 0.29 0.82 -0.19 0.73 -1.49 -0.7 0.03 -0.05 0.1 0.27 0.11 0.09 -0.23 -0.03 -0.51 0.04 -0.7 0.13 -0.88 0.23 -1.01 0.33 -1.13 0.41 -1.24 0.5 -1.34 0.58 -1.42 0.67 -1.49 0.73 -1.55 0.81 -1.58 0.88 -1.62 0.93 -1.64 1 -1.64 1.05 -1.64 1.11 -1.61 1.15 -1.59 1.2 -1.54 1.24 -1.48 1.27 -1.42 1.3 -1.34 1.34 -1.24 1.35 -1.14 1.37 -1.02 1.39 -0.89 1.4 -0.75 1.39 -0.6 1.4 -0.44 1.39 0 0 -1.59 -0.41zm-25.8 -11.57l0 0 0.07 1.21 0.2 1.21 0.31 1.19 0.42 1.17 0.53 1.15 0.62 1.12 0.71 1.08 0.79 1.05 0.86 1.01 0.93 0.95 0.99 0.91 1.03 0.84 1.08 0.78 1.11 0.72 1.13 0.65 1.15 0.57 1.16 0.49 1.15 0.4 1.14 0.32 1.13 0.23 1.09 0.13 1.06 0.03 1.01 -0.07 0.96 -0.16 0.9 -0.27 0.83 -0.38 0.76 -0.48 0.69 -0.59 0.62 -0.72 0.55 -0.84 0.45 -0.99 0.37 -1.14 1.59 0.41 -0.42 1.32 -0.55 1.18 -0.67 1.05 -0.77 0.89 -0.88 0.76 -0.97 0.6 -1.03 0.47 -1.09 0.33 -1.15 0.2 -1.17 0.08 -1.21 -0.04 -1.23 -0.15 -1.25 -0.25 -1.25 -0.35 -1.26 -0.44 -1.25 -0.53 -1.23 -0.61 -1.22 -0.69 -1.18 -0.77 -1.15 -0.83 -1.11 -0.91 -1.06 -0.97 -0.99 -1.02 -0.93 -1.09 -0.86 -1.13 -0.77 -1.18 -0.68 -1.23 -0.58 -1.27 -0.47 -1.3 -0.35 -1.34 -0.23 -1.36 -0.08 -1.39 0 0 1.65 -0.01zm63.61 -38.46l0.34 1.61 -4.04 0.7 -3.9 0.71 -3.77 0.74 -3.63 0.77 -3.5 0.78 -3.37 0.81 -3.23 0.84 -3.1 0.86 -2.97 0.9 -2.83 0.92 -2.7 0.94 -2.57 0.98 -2.44 1.01 -2.3 1.04 -2.18 1.07 -2.04 1.1 -1.91 1.14 -1.78 1.17 -1.65 1.2 -1.52 1.24 -1.39 1.27 -1.27 1.31 -1.14 1.35 -1.01 1.38 -0.89 1.42 -0.76 1.46 -0.65 1.51 -0.52 1.55 -0.4 1.59 -0.28 1.64 -0.17 1.7 -0.04 1.75 -1.65 0.01 0.05 -1.86 0.17 -1.81 0.31 -1.77 0.43 -1.72 0.57 -1.67 0.69 -1.62 0.83 -1.58 0.95 -1.52 1.08 -1.48 1.21 -1.43 1.34 -1.39 1.46 -1.34 1.6 -1.29 1.71 -1.26 1.85 -1.21 1.97 -1.17 2.1 -1.13 2.23 -1.1 2.35 -1.06 2.48 -1.03 2.61 -0.99 2.74 -0.96 2.87 -0.93 3 -0.91 3.13 -0.87 3.26 -0.84 3.4 -0.82 3.52 -0.79 3.66 -0.77 3.78 -0.74 3.93 -0.73 4.05 -0.69 0.34 1.6 -0.41 -1.59zm0.34 1.61l-0.27 -1.62c0.45,-0.08 0.87,0.22 0.95,0.67 0.07,0.45 -0.23,0.87 -0.68,0.95zm-47.26 12.2l-0.42 -1.59 47.34 -12.22 0.41 1.59 -47.33 12.22zm-6.25 -50.37l0.32 -0.09 -1.83 1.11 -1.63 1.28 -1.46 1.42 -1.28 1.56 -1.11 1.69 -0.96 1.79 -0.79 1.9 -0.65 1.98 -0.5 2.06 -0.35 2.12 -0.22 2.15 -0.09 2.19 0.04 2.21 0.16 2.2 0.28 2.19 0.38 2.16 0.49 2.12 0.59 2.05 0.67 1.99 0.77 1.9 0.83 1.79 0.91 1.67 0.98 1.55 1.03 1.39 1.07 1.24 1.12 1.05 1.14 0.87 1.17 0.68 1.17 0.46 1.19 0.26 1.19 0.03 1.2 -0.19 0.42 1.59 -1.52 0.24 -1.49 -0.04 -1.47 -0.31 -1.41 -0.56 -1.36 -0.79 -1.3 -0.98 -1.23 -1.18 -1.18 -1.34 -1.1 -1.5 -1.04 -1.64 -0.96 -1.76 -0.87 -1.88 -0.8 -1.98 -0.7 -2.06 -0.61 -2.14 -0.51 -2.2 -0.4 -2.24 -0.28 -2.28 -0.17 -2.29 -0.04 -2.29 0.09 -2.29 0.23 -2.26 0.37 -2.23 0.53 -2.17 0.68 -2.11 0.85 -2.03 1.03 -1.94 1.21 -1.82 1.39 -1.69 1.59 -1.55 1.78 -1.39 1.98 -1.21 0.32 -0.1 0.14 1.64zm0.32 -0.09l-0.78 -1.45c0.4,-0.22 0.9,-0.07 1.12,0.33 0.21,0.4 0.06,0.9 -0.34,1.12zm144.76 -40.34l0 0 -6.66 5.46 -6.47 4.98 -6.26 4.53 -6.07 4.09 -5.89 3.69 -5.71 3.3 -5.54 2.92 -5.37 2.57 -5.22 2.25 -5.06 1.93 -4.92 1.64 -4.79 1.37 -4.65 1.11 -4.53 0.89 -4.42 0.68 -4.3 0.48 -4.2 0.32 -4.1 0.16 -4.01 0.04 -3.92 -0.07 -3.85 -0.16 -3.78 -0.23 -3.71 -0.27 -3.65 -0.3 -3.6 -0.31 -3.56 -0.29 -3.53 -0.26 -3.49 -0.21 -3.47 -0.13 -3.46 -0.03 -3.44 0.07 -3.45 0.21 -0.14 -1.64 3.52 -0.21 3.5 -0.08 3.51 0.04 3.51 0.13 3.52 0.21 3.54 0.26 3.57 0.29 3.61 0.31 3.64 0.3 3.7 0.27 3.74 0.23 3.82 0.15 3.88 0.08 3.96 -0.04 4.05 -0.17 4.14 -0.31 4.24 -0.48 4.34 -0.66 4.47 -0.87 4.58 -1.11 4.72 -1.35 4.85 -1.61 5.01 -1.91 5.15 -2.21 5.31 -2.55 5.48 -2.89 5.66 -3.27 5.84 -3.65 6.03 -4.07 6.22 -4.5 6.42 -4.95 6.64 -5.43 0 0 1.05 1.26zm24.49 -47l0 0 -0.73 1.73 -0.74 1.75 -0.74 1.75 -0.73 1.76 -0.74 1.77 -0.74 1.77 -0.75 1.76 -0.74 1.76 -0.74 1.76 -0.75 1.74 -0.75 1.73 -0.74 1.71 -0.76 1.69 -0.75 1.67 -0.75 1.64 -0.76 1.62 -0.76 1.58 -0.76 1.54 -0.76 1.51 -0.77 1.46 -0.77 1.43 -0.77 1.37 -0.78 1.32 -0.78 1.28 -0.78 1.21 -0.79 1.16 -0.79 1.09 -0.8 1.03 -0.8 0.96 -0.82 0.89 -0.82 0.82 -0.83 0.74 -1.05 -1.26 0.75 -0.67 0.76 -0.76 0.77 -0.84 0.76 -0.91 0.76 -0.99 0.77 -1.05 0.76 -1.12 0.76 -1.18 0.76 -1.24 0.76 -1.3 0.76 -1.35 0.76 -1.4 0.75 -1.45 0.76 -1.48 0.75 -1.53 0.75 -1.57 0.76 -1.6 0.74 -1.63 0.75 -1.66 0.75 -1.68 0.74 -1.71 0.75 -1.72 0.74 -1.74 0.74 -1.75 0.75 -1.76 0.74 -1.76 0.74 -1.77 0.74 -1.76 0.74 -1.77 0.73 -1.75 0.74 -1.75 0.74 -1.73 0 0 1.51 0.64zm51.16 -138.38l0.07 -0.12 -2.31 4.59 -2.23 4.61 -2.15 4.62 -2.07 4.63 -2 4.64 -1.94 4.65 -1.87 4.64 -1.8 4.65 -1.75 4.63 -1.7 4.63 -1.65 4.61 -1.6 4.59 -1.56 4.58 -1.52 4.55 -1.49 4.53 -1.45 4.49 -1.43 4.46 -1.4 4.42 -1.39 4.38 -1.37 4.33 -1.35 4.29 -1.35 4.24 -1.34 4.18 -1.34 4.12 -1.35 4.06 -1.35 3.99 -1.36 3.93 -1.38 3.85 -1.4 3.77 -1.41 3.7 -1.44 3.62 -1.48 3.52 -1.51 -0.64 1.46 -3.51 1.43 -3.59 1.41 -3.67 1.39 -3.76 1.37 -3.84 1.36 -3.91 1.35 -3.98 1.34 -4.05 1.34 -4.12 1.34 -4.17 1.35 -4.24 1.36 -4.28 1.36 -4.34 1.39 -4.38 1.4 -4.42 1.43 -4.47 1.46 -4.49 1.49 -4.54 1.52 -4.56 1.56 -4.58 1.61 -4.61 1.65 -4.62 1.7 -4.64 1.76 -4.66 1.81 -4.65 1.88 -4.67 1.94 -4.66 2.01 -4.66 2.08 -4.65 2.16 -4.65 2.25 -4.63 2.32 -4.61 0.07 -0.12 1.32 0.99zm0.07 -0.12l-1.46 -0.75c0.21,-0.4 0.7,-0.56 1.11,-0.35 0.4,0.2 0.56,0.7 0.35,1.1zm63.61 15.33l0 -0.01 -0.62 -2.76 -0.77 -2.69 -0.92 -2.62 -1.06 -2.52 -1.19 -2.44 -1.32 -2.33 -1.44 -2.23 -1.55 -2.1 -1.66 -1.98 -1.76 -1.85 -1.85 -1.71 -1.94 -1.56 -2.02 -1.41 -2.1 -1.24 -2.16 -1.07 -2.22 -0.89 -2.28 -0.71 -2.33 -0.52 -2.36 -0.31 -2.41 -0.11 -2.43 0.11 -2.47 0.33 -2.48 0.55 -2.5 0.8 -2.51 1.05 -2.51 1.3 -2.51 1.57 -2.51 1.85 -2.49 2.12 -2.46 2.42 -2.44 2.72 -2.41 3.03 -1.32 -0.99 2.47 -3.1 2.51 -2.79 2.54 -2.5 2.58 -2.2 2.6 -1.92 2.62 -1.64 2.63 -1.36 2.64 -1.1 2.64 -0.84 2.62 -0.6 2.61 -0.34 2.58 -0.12 2.55 0.12 2.51 0.33 2.46 0.55 2.41 0.75 2.34 0.94 2.28 1.13 2.2 1.3 2.11 1.47 2.03 1.63 1.94 1.78 1.83 1.93 1.73 2.06 1.61 2.19 1.49 2.31 1.37 2.42 1.23 2.52 1.1 2.61 0.95 2.71 0.79 2.78 0.64 2.86 0 -0.01 -1.61 0.33zm0 -0.01l1.61 -0.31c0.09,0.44 -0.21,0.88 -0.65,0.96 -0.45,0.09 -0.88,-0.21 -0.96,-0.65z"/>
   </g>
   <g>
    <path class="fil0" d="M411.86 201.93c37.03,11.4 69.85,170.97 69.54,195.4 -1.19,39.73 -21.18,79.66 -34.93,115.8 -7.85,25.04 -14.88,43.97 -19.85,47.33 -21.02,26.85 -45.77,43.17 -56.5,38.56 -12.72,-5.47 18.33,-24.13 27.49,-35.5l-33.51 33.51c-5.68,7.21 -17.71,5.43 -15.71,0.59 8.21,-19.85 20.48,-37.2 37,-51.92 -6.63,6.77 -13.97,12.91 -19.91,20.3 -8.27,10.28 -12.47,25.14 -22.56,32.51 -4.03,1.29 -10.92,0.73 -10.46,-3.43 0.57,-5.26 16.57,-45.56 37.66,-59.56 2.03,-1.34 -3.75,1.5 -5.66,2.99 -13.34,10.45 -22.48,27.35 -29.46,47.4 -0.39,1.14 -4.04,2.86 -4.61,-2.62 -0.92,-8.64 -1.77,-20.5 0.8,-31.74 4.96,-21.71 25.99,-34.15 47.58,-38.69 5.35,-1.12 12.62,-5.36 16.3,-9.4 19.24,-21.18 28.92,-58.66 34.1,-89.59 3.67,-21.9 -2.43,-57.39 -16.29,-114.52l-14.57 -64.09c-4.57,-20.13 7.38,-31.97 13.55,-33.33z"/>
    <path id="1" class="fil1" d="M480.58 397.31l0 0.01 -0.07 -2.62 -0.25 -3.39 -0.44 -4.08 -0.62 -4.73 -0.78 -5.31 -0.96 -5.85 -1.12 -6.33 -1.28 -6.76 -1.42 -7.13 -1.58 -7.47 -1.71 -7.73 -1.85 -7.96 -1.98 -8.12 -2.11 -8.24 -2.23 -8.31 -2.34 -8.32 -2.45 -8.28 -2.55 -8.19 -2.65 -8.05 -2.75 -7.85 -2.83 -7.6 -2.91 -7.31 -2.99 -6.95 -3.06 -6.55 -3.12 -6.08 -3.18 -5.58 -3.23 -5.02 -3.27 -4.4 -3.3 -3.73 -3.31 -3 -3.32 -2.24 -3.3 -1.43 0.48 -1.57 3.61 1.56 3.55 2.39 3.47 3.14 3.4 3.85 3.34 4.5 3.29 5.09 3.22 5.65 3.15 6.15 3.08 6.6 3.01 6.99 2.93 7.35 2.84 7.63 2.76 7.88 2.66 8.08 2.56 8.21 2.45 8.3 2.35 8.34 2.23 8.33 2.11 8.26 1.99 8.14 1.85 7.98 1.72 7.75 1.58 7.48 1.43 7.15 1.28 6.78 1.12 6.34 0.96 5.87 0.79 5.34 0.62 4.76 0.45 4.13 0.25 3.45 0.07 2.73 0 0.02 -1.64 -0.05zm0 0.01l1.64 0.02c0,0.46 -0.38,0.82 -0.83,0.81 -0.46,0 -0.82,-0.38 -0.81,-0.83zm-34.89 115.56l0.01 -0.05 1.31 -3.4 1.34 -3.42 1.37 -3.45 1.39 -3.46 1.4 -3.48 1.43 -3.5 1.42 -3.52 1.44 -3.53 1.43 -3.55 1.43 -3.57 1.42 -3.57 1.4 -3.59 1.39 -3.61 1.36 -3.62 1.34 -3.62 1.3 -3.64 1.26 -3.65 1.23 -3.65 1.18 -3.67 1.12 -3.67 1.07 -3.68 1.02 -3.68 0.94 -3.69 0.88 -3.69 0.81 -3.7 0.72 -3.7 0.65 -3.7 0.56 -3.7 0.46 -3.71 0.37 -3.7 0.27 -3.7 0.17 -3.7 1.64 0.05 -0.16 3.74 -0.28 3.75 -0.37 3.75 -0.47 3.74 -0.57 3.74 -0.65 3.74 -0.73 3.74 -0.81 3.73 -0.89 3.72 -0.95 3.71 -1.02 3.71 -1.08 3.71 -1.13 3.69 -1.19 3.68 -1.23 3.68 -1.27 3.66 -1.31 3.65 -1.34 3.64 -1.36 3.63 -1.39 3.61 -1.41 3.6 -1.42 3.58 -1.43 3.57 -1.44 3.55 -1.43 3.54 -1.43 3.52 -1.42 3.49 -1.41 3.48 -1.38 3.46 -1.37 3.44 -1.33 3.42 -1.31 3.39 0.02 -0.05 -1.57 -0.49zm0.01 -0.05l1.54 0.59c-0.16,0.42 -0.64,0.64 -1.06,0.48 -0.42,-0.16 -0.64,-0.64 -0.48,-1.07zm-19.73 47.13l0.19 -0.18 0.4 -0.3 0.43 -0.41 0.46 -0.49 0.48 -0.59 0.49 -0.68 0.51 -0.76 0.53 -0.85 0.54 -0.93 0.55 -1.01 0.56 -1.09 0.57 -1.16 0.59 -1.24 0.59 -1.31 0.61 -1.38 0.61 -1.45 0.62 -1.51 0.63 -1.58 0.64 -1.64 0.65 -1.7 0.66 -1.76 0.66 -1.82 0.67 -1.87 0.68 -1.92 0.69 -1.98 0.69 -2.03 0.7 -2.07 0.71 -2.13 0.71 -2.16 0.72 -2.21 0.72 -2.25 0.73 -2.29 0.73 -2.33 1.57 0.49 -0.74 2.34 -0.72 2.29 -0.73 2.26 -0.72 2.21 -0.71 2.17 -0.71 2.13 -0.7 2.08 -0.69 2.04 -0.69 1.98 -0.68 1.93 -0.68 1.88 -0.67 1.83 -0.66 1.77 -0.65 1.71 -0.65 1.66 -0.63 1.59 -0.63 1.53 -0.62 1.46 -0.62 1.4 -0.6 1.33 -0.59 1.26 -0.59 1.19 -0.58 1.12 -0.57 1.05 -0.56 0.96 -0.55 0.9 -0.55 0.82 -0.54 0.73 -0.53 0.66 -0.54 0.58 -0.53 0.5 -0.55 0.42 0.19 -0.18 -1.3 -1.01zm0.19 -0.18l0.92 1.37c-0.37,0.25 -0.89,0.15 -1.14,-0.22 -0.25,-0.38 -0.15,-0.89 0.22,-1.15zm-55.71 38.48l0 0 0.95 0.34 1.03 0.23 1.11 0.12 1.2 0.02 1.28 -0.1 1.35 -0.2 1.42 -0.32 1.49 -0.42 1.54 -0.53 1.61 -0.63 1.66 -0.74 1.71 -0.84 1.75 -0.93 1.8 -1.04 1.83 -1.14 1.87 -1.22 1.91 -1.32 1.93 -1.41 1.95 -1.5 1.98 -1.59 1.99 -1.67 2.01 -1.75 2.02 -1.84 2.03 -1.91 2.03 -1.99 2.03 -2.07 2.03 -2.13 2.03 -2.21 2.02 -2.28 2 -2.35 1.99 -2.41 1.97 -2.47 1.3 1.01 -1.99 2.5 -2.01 2.43 -2.02 2.37 -2.04 2.3 -2.04 2.23 -2.06 2.16 -2.05 2.08 -2.05 2.01 -2.05 1.94 -2.05 1.85 -2.03 1.78 -2.02 1.69 -2 1.61 -1.99 1.52 -1.96 1.44 -1.93 1.34 -1.91 1.25 -1.88 1.16 -1.84 1.06 -1.8 0.97 -1.76 0.86 -1.72 0.77 -1.68 0.66 -1.62 0.55 -1.58 0.45 -1.52 0.33 -1.46 0.23 -1.41 0.1 -1.35 -0.01 -1.29 -0.14 -1.22 -0.28 -1.14 -0.4 0 0 0.65 -1.52zm26.58 -35.32l1.22 1.09 -0.94 1.12 -1.06 1.15 -1.16 1.17 -1.25 1.21 -1.32 1.23 -1.39 1.25 -1.45 1.27 -1.48 1.29 -1.52 1.29 -1.54 1.3 -1.54 1.31 -1.53 1.31 -1.52 1.3 -1.49 1.3 -1.45 1.28 -1.39 1.27 -1.33 1.25 -1.25 1.23 -1.15 1.2 -1.06 1.16 -0.93 1.12 -0.81 1.08 -0.67 1.03 -0.51 0.96 -0.36 0.89 -0.18 0.8 -0.03 0.71 0.12 0.62 0.27 0.57 0.47 0.54 0.69 0.53 0.96 0.49 -0.65 1.52 -1.18 -0.61 -0.95 -0.72 -0.71 -0.85 -0.47 -0.95 -0.2 -1.02 0.05 -1.06 0.25 -1.07 0.43 -1.09 0.59 -1.1 0.73 -1.13 0.87 -1.16 0.98 -1.18 1.1 -1.21 1.18 -1.23 1.28 -1.25 1.35 -1.27 1.41 -1.29 1.46 -1.3 1.5 -1.3 1.53 -1.31 1.54 -1.31 1.54 -1.31 1.53 -1.3 1.51 -1.29 1.48 -1.28 1.43 -1.26 1.38 -1.23 1.3 -1.21 1.22 -1.18 1.13 -1.15 1.01 -1.1 0.9 -1.06 1.22 1.1 -1.16 -1.16zm1.22 1.09l-1.28 -1.03c0.28,-0.35 0.8,-0.41 1.16,-0.12 0.35,0.28 0.41,0.8 0.12,1.15zm-33.57 33.58l-1.23 -1.09 0.07 -0.07 33.51 -33.51 1.16 1.16 -33.51 33.51zm-1.16 -1.16l1.16 1.16c-0.32,0.32 -0.84,0.32 -1.16,0 -0.33,-0.32 -0.33,-0.84 0,-1.16zm-14.37 1.49l0 0 -0.11 0.32 -0.04 0.29 0 0.26 0.05 0.24 0.09 0.22 0.14 0.23 0.19 0.22 0.24 0.22 0.3 0.21 0.36 0.19 0.4 0.18 0.45 0.15 0.49 0.13 0.53 0.11 0.57 0.07 0.59 0.04 0.61 0.01 0.64 -0.02 0.65 -0.06 0.67 -0.1 0.67 -0.13 0.67 -0.18 0.67 -0.21 0.68 -0.25 0.66 -0.29 0.65 -0.33 0.64 -0.38 0.62 -0.42 0.59 -0.47 0.57 -0.51 0.55 -0.55 0.51 -0.61 1.29 1.02 -0.58 0.69 -0.63 0.64 -0.65 0.59 -0.69 0.53 -0.7 0.48 -0.72 0.43 -0.74 0.38 -0.75 0.33 -0.76 0.28 -0.76 0.24 -0.76 0.19 -0.76 0.15 -0.74 0.11 -0.74 0.07 -0.72 0.03 -0.71 -0.01 -0.69 -0.05 -0.66 -0.09 -0.63 -0.12 -0.61 -0.16 -0.57 -0.2 -0.53 -0.23 -0.5 -0.27 -0.45 -0.32 -0.4 -0.36 -0.34 -0.4 -0.28 -0.46 -0.2 -0.49 -0.11 -0.54 -0.01 -0.55 0.09 -0.56 0.19 -0.56 0 0 1.52 0.63zm35.66 -52.81l1.13 1.19 -1.53 1.38 -1.5 1.39 -1.48 1.41 -1.45 1.43 -1.43 1.44 -1.41 1.46 -1.38 1.47 -1.35 1.49 -1.33 1.5 -1.31 1.51 -1.28 1.53 -1.26 1.55 -1.23 1.56 -1.21 1.58 -1.18 1.59 -1.16 1.6 -1.14 1.63 -1.11 1.63 -1.09 1.65 -1.06 1.67 -1.04 1.68 -1.02 1.7 -0.99 1.71 -0.97 1.72 -0.94 1.74 -0.92 1.76 -0.9 1.77 -0.87 1.78 -0.85 1.8 -0.82 1.81 -0.8 1.83 -0.78 1.85 -1.52 -0.63 0.79 -1.87 0.81 -1.85 0.83 -1.83 0.86 -1.82 0.88 -1.81 0.91 -1.79 0.93 -1.77 0.95 -1.76 0.98 -1.75 1 -1.73 1.03 -1.72 1.05 -1.7 1.08 -1.68 1.1 -1.67 1.12 -1.66 1.15 -1.64 1.18 -1.62 1.2 -1.61 1.22 -1.6 1.25 -1.58 1.27 -1.56 1.3 -1.55 1.32 -1.54 1.34 -1.52 1.37 -1.5 1.4 -1.49 1.42 -1.47 1.45 -1.46 1.47 -1.44 1.49 -1.42 1.52 -1.42 1.55 -1.39 1.13 1.19 -1.17 -1.15zm1.13 1.19l-1.09 -1.23c0.33,-0.3 0.86,-0.27 1.16,0.07 0.3,0.33 0.27,0.86 -0.07,1.16zm-21.1 19.16l0 0 0.56 -0.69 0.58 -0.69 0.58 -0.68 0.59 -0.68 0.6 -0.67 0.6 -0.66 0.6 -0.66 0.62 -0.65 0.61 -0.65 0.62 -0.64 0.63 -0.64 0.63 -0.64 0.63 -0.63 0.64 -0.62 0.63 -0.63 0.64 -0.62 0.64 -0.62 0.65 -0.62 0.64 -0.62 0.64 -0.61 0.65 -0.62 0.64 -0.61 0.64 -0.62 0.65 -0.61 0.64 -0.62 0.64 -0.62 0.63 -0.61 0.64 -0.62 0.63 -0.62 0.63 -0.63 0.62 -0.62 0.63 -0.63 1.17 1.15 -0.63 0.64 -0.63 0.63 -0.63 0.63 -0.64 0.62 -0.64 0.63 -0.64 0.62 -0.64 0.62 -0.64 0.61 -0.65 0.62 -0.64 0.62 -0.64 0.61 -0.65 0.62 -0.64 0.61 -0.64 0.62 -0.64 0.61 -0.64 0.62 -0.64 0.62 -0.63 0.62 -0.63 0.62 -0.63 0.63 -0.62 0.63 -0.62 0.63 -0.61 0.63 -0.61 0.64 -0.6 0.64 -0.6 0.65 -0.59 0.65 -0.58 0.66 -0.58 0.66 -0.57 0.67 -0.56 0.67 -0.56 0.69 0 0 -1.28 -1.04zm-22.17 32.25l-0.24 0.12 0.9 -0.69 0.87 -0.73 0.84 -0.77 0.82 -0.81 0.78 -0.85 0.77 -0.88 0.74 -0.9 0.73 -0.94 0.71 -0.97 0.69 -1 0.67 -1.01 0.66 -1.04 0.65 -1.06 0.65 -1.07 0.63 -1.09 0.63 -1.1 0.62 -1.11 0.62 -1.12 0.62 -1.12 0.62 -1.13 0.62 -1.13 0.63 -1.12 0.63 -1.13 0.64 -1.11 0.66 -1.11 0.66 -1.11 0.68 -1.08 0.69 -1.08 0.71 -1.06 0.74 -1.03 0.75 -1.02 0.78 -1 1.28 1.04 -0.75 0.95 -0.73 0.99 -0.71 1.01 -0.69 1.03 -0.68 1.05 -0.67 1.07 -0.65 1.08 -0.64 1.09 -0.64 1.11 -0.63 1.11 -0.62 1.12 -0.62 1.13 -0.62 1.12 -0.62 1.13 -0.62 1.12 -0.63 1.12 -0.64 1.11 -0.64 1.11 -0.65 1.09 -0.66 1.07 -0.68 1.07 -0.69 1.04 -0.71 1.02 -0.73 1 -0.76 0.98 -0.77 0.95 -0.8 0.92 -0.83 0.88 -0.86 0.86 -0.89 0.81 -0.93 0.78 -0.96 0.74 -0.23 0.12 -0.5 -1.57zm-0.24 0.12l0.97 1.33c-0.36,0.26 -0.88,0.18 -1.15,-0.18 -0.26,-0.37 -0.18,-0.89 0.18,-1.15zm-9.15 -2.68l0 0 -0.02 0.29 0.01 0.26 0.05 0.24 0.06 0.23 0.1 0.2 0.11 0.2 0.14 0.19 0.17 0.18 0.2 0.17 0.23 0.16 0.25 0.16 0.28 0.14 0.3 0.13 0.33 0.12 0.34 0.1 0.36 0.1 0.38 0.07 0.39 0.07 0.41 0.05 0.41 0.04 0.42 0.02 0.42 0.01 0.43 0 0.43 -0.02 0.42 -0.03 0.43 -0.04 0.41 -0.05 0.41 -0.07 0.4 -0.07 0.39 -0.09 0.37 -0.09 0.36 -0.11 0.5 1.57 -0.41 0.12 -0.43 0.11 -0.44 0.1 -0.45 0.09 -0.46 0.07 -0.47 0.06 -0.47 0.04 -0.48 0.04 -0.47 0.01 -0.48 0.01 -0.48 -0.01 -0.47 -0.03 -0.47 -0.04 -0.46 -0.06 -0.46 -0.08 -0.45 -0.09 -0.43 -0.11 -0.43 -0.13 -0.41 -0.15 -0.39 -0.17 -0.38 -0.2 -0.36 -0.22 -0.34 -0.24 -0.31 -0.28 -0.29 -0.3 -0.25 -0.33 -0.22 -0.36 -0.17 -0.39 -0.13 -0.42 -0.07 -0.43 -0.03 -0.46 0.03 -0.46 0 0 1.64 0.18zm37.3 -58.96l0 0 -1.92 1.36 -1.9 1.5 -1.87 1.64 -1.84 1.76 -1.8 1.87 -1.76 1.96 -1.73 2.06 -1.69 2.14 -1.64 2.19 -1.6 2.26 -1.55 2.29 -1.5 2.33 -1.45 2.35 -1.39 2.35 -1.34 2.36 -1.28 2.34 -1.22 2.31 -1.16 2.28 -1.1 2.23 -1.03 2.17 -0.96 2.1 -0.9 2.02 -0.82 1.93 -0.75 1.82 -0.67 1.7 -0.6 1.58 -0.51 1.44 -0.44 1.29 -0.35 1.12 -0.27 0.94 -0.18 0.75 -0.08 0.52 -1.64 -0.18 0.11 -0.67 0.2 -0.83 0.28 -1 0.36 -1.16 0.45 -1.32 0.53 -1.47 0.6 -1.6 0.69 -1.73 0.75 -1.84 0.84 -1.94 0.9 -2.04 0.97 -2.13 1.04 -2.19 1.11 -2.25 1.17 -2.3 1.23 -2.33 1.29 -2.37 1.36 -2.37 1.41 -2.38 1.46 -2.38 1.52 -2.35 1.57 -2.33 1.62 -2.29 1.67 -2.23 1.71 -2.17 1.76 -2.09 1.81 -2.02 1.84 -1.91 1.89 -1.8 1.92 -1.69 1.97 -1.56 2 -1.41 0 0 0.91 1.37zm-6.63 1.65l0 0 0.21 -0.15 0.23 -0.17 0.24 -0.16 0.26 -0.17 0.27 -0.17 0.28 -0.18 0.29 -0.17 0.29 -0.17 0.3 -0.18 0.31 -0.17 0.3 -0.17 0.31 -0.17 0.29 -0.16 0.3 -0.16 0.29 -0.15 0.27 -0.14 0.27 -0.13 0.26 -0.13 0.24 -0.12 0.22 -0.1 0.2 -0.1 0.19 -0.08 0.17 -0.07 0.15 -0.05 0.15 -0.05 0.22 -0.04 0.75 0.34 0.02 0.97 -0.18 0.2 -0.13 0.11 -0.15 0.11 -0.19 0.13 -0.91 -1.37 0.15 -0.1 0.09 -0.07 0.03 -0.03 -0.09 0.11 0.03 0.92 0.69 0.32 0.1 -0.01 -0.04 0.01 -0.09 0.03 -0.12 0.06 -0.16 0.07 -0.19 0.08 -0.2 0.1 -0.23 0.11 -0.24 0.12 -0.26 0.13 -0.27 0.14 -0.27 0.14 -0.29 0.15 -0.29 0.16 -0.29 0.16 -0.3 0.16 -0.29 0.17 -0.29 0.17 -0.28 0.16 -0.27 0.17 -0.27 0.16 -0.24 0.16 -0.24 0.16 -0.22 0.14 -0.19 0.14 -0.17 0.13 0 0 -1.02 -1.3zm-29.72 47.78l0 0 0.66 -1.88 0.68 -1.85 0.69 -1.84 0.7 -1.82 0.72 -1.8 0.73 -1.78 0.75 -1.76 0.76 -1.73 0.78 -1.71 0.8 -1.69 0.81 -1.66 0.83 -1.64 0.85 -1.61 0.86 -1.59 0.89 -1.56 0.9 -1.53 0.92 -1.51 0.94 -1.48 0.96 -1.44 0.99 -1.42 1 -1.39 1.02 -1.36 1.05 -1.32 1.06 -1.29 1.09 -1.27 1.11 -1.22 1.14 -1.19 1.16 -1.16 1.18 -1.13 1.21 -1.08 1.23 -1.05 1.25 -1.02 1.02 1.3 -1.22 0.99 -1.2 1.01 -1.17 1.06 -1.15 1.1 -1.13 1.12 -1.11 1.17 -1.09 1.2 -1.06 1.23 -1.04 1.26 -1.03 1.3 -1 1.33 -0.98 1.36 -0.96 1.39 -0.95 1.42 -0.92 1.45 -0.91 1.48 -0.89 1.51 -0.87 1.54 -0.85 1.56 -0.84 1.59 -0.81 1.62 -0.81 1.64 -0.78 1.67 -0.78 1.69 -0.75 1.72 -0.74 1.74 -0.73 1.76 -0.71 1.78 -0.7 1.8 -0.68 1.83 -0.67 1.84 -0.66 1.86 0 0 -1.55 -0.54zm-3.03 -2.43l0 0 0.06 0.45 0.07 0.41 0.09 0.37 0.1 0.33 0.1 0.28 0.11 0.25 0.12 0.21 0.11 0.18 0.12 0.15 0.11 0.11 0.12 0.1 0.11 0.07 0.1 0.06 0.11 0.04 0.11 0.03 0.11 0.01 0.12 0.01 0.12 0 0.11 -0.02 0.12 -0.02 0.13 -0.04 0.11 -0.04 0.11 -0.05 0.12 -0.06 0.1 -0.06 0.08 -0.07 0.08 -0.06 0.07 -0.07 0.05 -0.05 0.03 -0.05 0.02 -0.03 0.01 -0.01 1.55 0.54 -0.09 0.21 -0.11 0.19 -0.13 0.18 -0.14 0.16 -0.16 0.15 -0.16 0.14 -0.19 0.13 -0.19 0.12 -0.21 0.11 -0.21 0.1 -0.23 0.09 -0.24 0.07 -0.25 0.05 -0.26 0.03 -0.27 0.01 -0.27 -0.02 -0.27 -0.04 -0.28 -0.08 -0.27 -0.1 -0.27 -0.14 -0.26 -0.18 -0.25 -0.2 -0.23 -0.24 -0.21 -0.27 -0.2 -0.29 -0.17 -0.33 -0.17 -0.36 -0.14 -0.39 -0.12 -0.42 -0.11 -0.46 -0.09 -0.49 -0.06 -0.53 0 0 1.63 -0.17zm0.79 -31.47l0 0 -0.23 1.04 -0.21 1.04 -0.19 1.05 -0.17 1.05 -0.15 1.05 -0.14 1.05 -0.12 1.05 -0.11 1.05 -0.09 1.04 -0.08 1.05 -0.06 1.04 -0.05 1.04 -0.04 1.04 -0.03 1.03 -0.01 1.02 -0.01 1.02 0.01 1.01 0.01 1 0.03 0.99 0.03 0.99 0.04 0.97 0.05 0.96 0.05 0.95 0.06 0.94 0.07 0.93 0.07 0.91 0.07 0.9 0.08 0.89 0.08 0.86 0.08 0.86 0.09 0.83 0.08 0.82 -1.63 0.17 -0.09 -0.82 -0.08 -0.84 -0.09 -0.86 -0.08 -0.87 -0.08 -0.9 -0.07 -0.91 -0.07 -0.92 -0.07 -0.94 -0.06 -0.95 -0.05 -0.96 -0.05 -0.98 -0.04 -0.98 -0.04 -1 -0.02 -1.01 -0.02 -1.02 0 -1.02 0 -1.04 0.02 -1.04 0.02 -1.05 0.04 -1.05 0.05 -1.06 0.07 -1.06 0.08 -1.07 0.09 -1.07 0.11 -1.07 0.12 -1.08 0.15 -1.07 0.15 -1.08 0.18 -1.07 0.2 -1.08 0.21 -1.07 0.24 -1.07 0 0 1.6 0.37zm46.95 -38.07l0 0 -2 0.44 -2 0.49 -1.99 0.54 -1.98 0.58 -1.96 0.63 -1.94 0.68 -1.93 0.73 -1.9 0.77 -1.87 0.82 -1.84 0.86 -1.82 0.92 -1.77 0.96 -1.74 1.01 -1.7 1.06 -1.66 1.11 -1.61 1.16 -1.56 1.21 -1.51 1.25 -1.45 1.3 -1.4 1.36 -1.33 1.4 -1.28 1.45 -1.21 1.51 -1.14 1.55 -1.07 1.6 -1 1.66 -0.92 1.7 -0.84 1.76 -0.76 1.81 -0.68 1.86 -0.59 1.92 -0.5 1.97 -1.6 -0.37 0.52 -2.05 0.61 -1.99 0.71 -1.94 0.79 -1.88 0.88 -1.83 0.95 -1.78 1.04 -1.72 1.11 -1.67 1.19 -1.61 1.25 -1.56 1.32 -1.5 1.38 -1.45 1.45 -1.4 1.5 -1.35 1.55 -1.29 1.61 -1.24 1.66 -1.19 1.7 -1.14 1.74 -1.09 1.78 -1.03 1.82 -0.99 1.86 -0.93 1.88 -0.89 1.91 -0.84 1.94 -0.79 1.97 -0.74 1.98 -0.69 2 -0.64 2.01 -0.59 2.03 -0.55 2.03 -0.5 2.04 -0.45 0 0 0.34 1.61zm16.74 -9.66l0 0 -0.38 0.4 -0.39 0.39 -0.4 0.4 -0.43 0.39 -0.44 0.39 -0.46 0.38 -0.47 0.39 -0.49 0.38 -0.5 0.37 -0.51 0.37 -0.52 0.37 -0.53 0.36 -0.54 0.35 -0.54 0.35 -0.56 0.34 -0.56 0.33 -0.57 0.32 -0.57 0.31 -0.57 0.3 -0.57 0.29 -0.58 0.29 -0.58 0.26 -0.57 0.26 -0.58 0.25 -0.57 0.23 -0.57 0.21 -0.56 0.2 -0.56 0.19 -0.55 0.17 -0.55 0.16 -0.54 0.14 -0.53 0.12 -0.34 -1.61 0.49 -0.11 0.49 -0.13 0.51 -0.14 0.51 -0.16 0.53 -0.18 0.53 -0.19 0.54 -0.21 0.54 -0.21 0.55 -0.24 0.55 -0.24 0.55 -0.26 0.55 -0.27 0.55 -0.28 0.55 -0.29 0.55 -0.3 0.54 -0.31 0.54 -0.32 0.54 -0.32 0.52 -0.33 0.52 -0.34 0.51 -0.35 0.5 -0.35 0.49 -0.35 0.47 -0.36 0.46 -0.36 0.45 -0.36 0.43 -0.37 0.42 -0.37 0.4 -0.36 0.38 -0.37 0.36 -0.36 0.34 -0.37 0 0 1.22 1.11zm34.3 -90l0 0 -0.5 2.92 -0.53 2.96 -0.55 2.99 -0.59 3.01 -0.61 3.04 -0.65 3.05 -0.68 3.07 -0.71 3.08 -0.75 3.08 -0.77 3.09 -0.82 3.08 -0.85 3.07 -0.89 3.06 -0.93 3.05 -0.97 3.03 -1.01 3 -1.05 2.97 -1.1 2.95 -1.13 2.9 -1.19 2.87 -1.22 2.82 -1.28 2.78 -1.32 2.72 -1.37 2.66 -1.42 2.6 -1.47 2.54 -1.52 2.46 -1.58 2.4 -1.63 2.31 -1.68 2.24 -1.74 2.14 -1.79 2.06 -1.22 -1.11 1.75 -2.01 1.7 -2.1 1.65 -2.18 1.6 -2.28 1.55 -2.35 1.5 -2.43 1.45 -2.5 1.4 -2.56 1.35 -2.63 1.3 -2.69 1.26 -2.74 1.22 -2.79 1.17 -2.84 1.12 -2.88 1.09 -2.92 1.04 -2.95 1 -2.98 0.97 -3 0.92 -3.03 0.88 -3.04 0.85 -3.05 0.81 -3.07 0.78 -3.06 0.74 -3.07 0.71 -3.06 0.67 -3.05 0.65 -3.04 0.61 -3.03 0.58 -3 0.55 -2.97 0.53 -2.95 0.5 -2.91 0 0 1.62 0.27zm-16.3 -114.84l0 -0.01 1.28 5.29 1.23 5.17 1.18 5.05 1.14 4.92 1.09 4.81 1.05 4.68 0.99 4.57 0.95 4.45 0.9 4.33 0.85 4.23 0.81 4.11 0.75 4 0.7 3.89 0.66 3.78 0.6 3.69 0.55 3.57 0.5 3.47 0.45 3.37 0.4 3.28 0.34 3.17 0.29 3.08 0.24 2.98 0.18 2.89 0.13 2.8 0.08 2.71 0.02 2.62 -0.04 2.53 -0.09 2.45 -0.15 2.36 -0.2 2.28 -0.26 2.2 -0.32 2.12 -1.62 -0.27 0.31 -2.07 0.25 -2.15 0.2 -2.23 0.15 -2.32 0.09 -2.41 0.03 -2.5 -0.02 -2.58 -0.07 -2.68 -0.13 -2.77 -0.18 -2.86 -0.24 -2.96 -0.29 -3.05 -0.34 -3.15 -0.39 -3.26 -0.45 -3.35 -0.5 -3.46 -0.55 -3.56 -0.6 -3.66 -0.65 -3.77 -0.7 -3.88 -0.75 -3.99 -0.8 -4.1 -0.85 -4.22 -0.9 -4.32 -0.94 -4.45 -1 -4.56 -1.04 -4.67 -1.09 -4.8 -1.14 -4.92 -1.18 -5.04 -1.23 -5.17 -1.28 -5.29 0 -0.01 1.6 -0.36zm0 -0.01l-1.6 0.38c-0.11,-0.44 0.17,-0.88 0.61,-0.99 0.44,-0.11 0.88,0.16 0.99,0.61zm-16.17 -63.72l1.61 -0.36 0 0 14.56 64.09 -1.6 0.36 -14.57 -64.09zm14.11 -32.73l0.42 0.02 -0.53 0.14 -0.57 0.2 -0.6 0.26 -0.63 0.32 -0.65 0.38 -0.67 0.43 -0.67 0.5 -0.69 0.55 -0.69 0.61 -0.69 0.67 -0.69 0.72 -0.67 0.78 -0.66 0.84 -0.64 0.89 -0.62 0.94 -0.6 1 -0.56 1.06 -0.53 1.1 -0.49 1.16 -0.45 1.21 -0.4 1.27 -0.36 1.32 -0.29 1.37 -0.24 1.42 -0.18 1.47 -0.11 1.53 -0.04 1.57 0.03 1.63 0.11 1.67 0.2 1.73 0.28 1.78 0.38 1.83 -1.61 0.36 -0.39 -1.9 -0.29 -1.85 -0.21 -1.8 -0.11 -1.75 -0.04 -1.7 0.04 -1.65 0.12 -1.61 0.19 -1.55 0.25 -1.49 0.32 -1.45 0.37 -1.39 0.42 -1.34 0.48 -1.29 0.52 -1.22 0.56 -1.18 0.6 -1.12 0.63 -1.06 0.66 -1.01 0.69 -0.94 0.7 -0.9 0.72 -0.83 0.74 -0.78 0.74 -0.72 0.75 -0.66 0.74 -0.6 0.75 -0.54 0.74 -0.48 0.72 -0.43 0.72 -0.36 0.7 -0.3 0.68 -0.24 0.66 -0.17 0.42 0.01 -0.48 1.57zm0.42 0.02l-0.36 -1.6c0.44,-0.1 0.88,0.18 0.98,0.62 0.1,0.44 -0.18,0.88 -0.62,0.98z"/>
   </g>
   <g>
    <path class="fil1" d="M389.68 391.32l1.61 0.32c-0.09,0.44 -0.52,0.73 -0.97,0.65 -0.44,-0.09 -0.73,-0.53 -0.64,-0.97zm12.32 -67.56l0 -0.02 0.05 1.67 0.02 1.68 -0.02 1.7 -0.05 1.73 -0.08 1.74 -0.12 1.77 -0.14 1.79 -0.18 1.82 -0.21 1.85 -0.23 1.87 -0.26 1.9 -0.28 1.93 -0.31 1.96 -0.33 1.99 -0.36 2.03 -0.37 2.05 -0.39 2.1 -0.42 2.13 -0.42 2.16 -0.45 2.21 -0.46 2.24 -0.47 2.29 -0.48 2.32 -0.5 2.37 -0.51 2.41 -0.51 2.46 -0.53 2.5 -0.53 2.55 -0.53 2.59 -0.55 2.65 -0.54 2.69 -0.55 2.75 -1.61 -0.32 0.55 -2.75 0.54 -2.7 0.54 -2.65 0.54 -2.6 0.53 -2.55 0.53 -2.5 0.51 -2.46 0.51 -2.41 0.49 -2.37 0.49 -2.32 0.47 -2.28 0.46 -2.24 0.44 -2.2 0.43 -2.16 0.41 -2.12 0.39 -2.08 0.37 -2.05 0.35 -2.02 0.33 -1.97 0.31 -1.95 0.28 -1.91 0.26 -1.88 0.23 -1.86 0.2 -1.82 0.18 -1.79 0.14 -1.77 0.12 -1.74 0.08 -1.72 0.05 -1.69 0.01 -1.67 -0.01 -1.64 -0.06 -1.63 0 -0.02 1.65 -0.04zm0 -0.02l-1.65 0.08c-0.02,-0.45 0.33,-0.84 0.79,-0.86 0.45,-0.02 0.84,0.33 0.86,0.78zm-10.91 -21.13l0.62 0.68 0.61 0.68 0.59 0.68 0.57 0.67 0.56 0.68 0.54 0.67 0.52 0.68 0.5 0.67 0.49 0.67 0.47 0.67 0.45 0.66 0.43 0.67 0.42 0.67 0.39 0.66 0.38 0.66 0.36 0.66 0.34 0.66 0.32 0.66 0.3 0.66 0.28 0.66 0.26 0.65 0.24 0.66 0.22 0.65 0.21 0.65 0.18 0.65 0.15 0.65 0.14 0.65 0.12 0.65 0.09 0.64 0.08 0.65 0.05 0.64 0.03 0.64 -1.65 0.04 -0.02 -0.58 -0.05 -0.59 -0.07 -0.59 -0.09 -0.59 -0.1 -0.59 -0.13 -0.6 -0.15 -0.6 -0.16 -0.61 -0.19 -0.6 -0.21 -0.62 -0.22 -0.61 -0.25 -0.61 -0.27 -0.62 -0.28 -0.63 -0.3 -0.62 -0.33 -0.63 -0.34 -0.63 -0.36 -0.63 -0.38 -0.64 -0.4 -0.64 -0.41 -0.64 -0.44 -0.64 -0.45 -0.65 -0.47 -0.64 -0.49 -0.65 -0.51 -0.66 -0.52 -0.65 -0.54 -0.66 -0.56 -0.66 -0.58 -0.66 -0.59 -0.67 -0.61 -0.66 1.21 -1.12zm0 0l-1.21 1.12c-0.31,-0.34 -0.29,-0.86 0.04,-1.17 0.34,-0.3 0.86,-0.29 1.17,0.05z"/>
   </g>
  </g>
 </g>
</svg>
